ply
format ascii 1.0
element vertex 8
property float x
property float y
property float z
property uchar red
property uchar green
property uchar blue
element edge 12
property int vertex1
property int vertex2
end_header
7047.1 98.0794 -1471.5 0 0 255
6942.06 359.701 -1453.95 0 0 255
6059.95 4.71155 -1441.52 0 0 255
6164.99 -256.91 -1459.07 0 0 255
7048.08 96.6013 -1443.56 0 0 255
6943.05 358.223 -1426 0 0 255
6060.94 3.23343 -1413.57 0 0 255
6165.97 -258.388 -1431.13 0 0 255
0 1
1 2
2 3
3 0
4 5
5 6
6 7
7 4
0 4
1 5
2 6
3 7
