ply
format ascii 1.0
element vertex 8
property float x
property float y
property float z
property uchar red
property uchar green
property uchar blue
element edge 12
property int vertex1
property int vertex2
end_header
4852.35 55.1678 -1455.69 0 0 255
4789.77 -342.654 -1463.93 0 0 255
5685.71 -483.783 -1455.36 0 0 255
5748.3 -85.9609 -1447.12 0 0 255
4852 54.643 -1427.69 0 0 255
4789.41 -343.179 -1435.93 0 0 255
5685.36 -484.308 -1427.37 0 0 255
5747.95 -86.4857 -1419.13 0 0 255
0 1
1 2
2 3
3 0
4 5
5 6
6 7
7 4
0 4
1 5
2 6
3 7
