ply
format ascii 1.0
element vertex 8
property float x
property float y
property float z
property uchar red
property uchar green
property uchar blue
element edge 12
property int vertex1
property int vertex2
end_header
2847.26 252.188 -1457.57 0 0 255
2568.25 410.011 -1462.74 0 0 255
2114.8 -391.538 -1459.42 0 0 255
2393.81 -549.361 -1454.24 0 0 255
2846.92 252.498 -1429.58 0 0 255
2567.91 410.321 -1434.75 0 0 255
2114.45 -391.228 -1431.42 0 0 255
2393.47 -549.051 -1426.25 0 0 255
0 1
1 2
2 3
3 0
4 5
5 6
6 7
7 4
0 4
1 5
2 6
3 7
