ply
format ascii 1.0
element vertex 8
property float x
property float y
property float z
property uchar red
property uchar green
property uchar blue
element edge 12
property int vertex1
property int vertex2
end_header
5775.53 -72.4932 -1454.22 0 0 255
5744.09 275.63 -1450.46 0 0 255
4816.96 191.97 -1457.45 0 0 255
4848.4 -156.154 -1461.21 0 0 255
5775.35 -72.8119 -1426.22 0 0 255
5743.91 275.312 -1422.46 0 0 255
4816.78 191.651 -1429.45 0 0 255
4848.22 -156.472 -1433.21 0 0 255
0 1
1 2
2 3
3 0
4 5
5 6
6 7
7 4
0 4
1 5
2 6
3 7
