ply
format ascii 1.0
element vertex 8
property float x
property float y
property float z
property uchar red
property uchar green
property uchar blue
element edge 12
property int vertex1
property int vertex2
end_header
6981.09 -176.255 -1456.24 0 0 255
6868.59 162.945 -1450.96 0 0 255
6179.93 -65.4058 -1453.88 0 0 255
6292.43 -404.606 -1459.16 0 0 255
6981.11 -176.683 -1428.24 0 0 255
6868.62 162.517 -1422.97 0 0 255
6179.96 -65.8337 -1425.89 0 0 255
6292.45 -405.034 -1431.16 0 0 255
0 1
1 2
2 3
3 0
4 5
5 6
6 7
7 4
0 4
1 5
2 6
3 7
