ply
format ascii 1.0
element vertex 8
property float x
property float y
property float z
property uchar red
property uchar green
property uchar blue
element edge 12
property int vertex1
property int vertex2
end_header
1527.54 266.331 -1453.25 0 0 255
1281.4 283.245 -1461.82 0 0 255
1219.28 -621.617 -1463.61 0 0 255
1465.42 -638.531 -1455.04 0 0 255
1526.56 266.342 -1425.26 0 0 255
1280.43 283.256 -1433.84 0 0 255
1218.31 -621.605 -1435.63 0 0 255
1464.45 -638.519 -1427.05 0 0 255
0 1
1 2
2 3
3 0
4 5
5 6
6 7
7 4
0 4
1 5
2 6
3 7
