ply
format ascii 1.0
element vertex 8
property float x
property float y
property float z
property uchar red
property uchar green
property uchar blue
element edge 12
property int vertex1
property int vertex2
end_header
489.255 413.587 -1461.35 0 0 255
478.722 180.984 -1469.63 0 0 255
1415.91 138.147 -1458.46 0 0 255
1426.44 370.749 -1450.19 0 0 255
488.877 412.608 -1433.37 0 0 255
478.344 180.006 -1441.65 0 0 255
1415.53 137.168 -1430.48 0 0 255
1426.06 369.771 -1422.21 0 0 255
0 1
1 2
2 3
3 0
4 5
5 6
6 7
7 4
0 4
1 5
2 6
3 7
