ply
format ascii 1.0
element vertex 8
property float x
property float y
property float z
property uchar red
property uchar green
property uchar blue
element edge 12
property int vertex1
property int vertex2
end_header
4287.53 313.441 -1459.58 0 0 255
4285.16 -47.1754 -1454.42 0 0 255
5216.23 -53.3375 -1456.45 0 0 255
5218.6 307.279 -1461.6 0 0 255
4287.6 313.841 -1431.58 0 0 255
4285.22 -46.7755 -1426.43 0 0 255
5216.29 -52.9376 -1428.45 0 0 255
5218.67 307.679 -1433.61 0 0 255
0 1
1 2
2 3
3 0
4 5
5 6
6 7
7 4
0 4
1 5
2 6
3 7
