ply
format ascii 1.0
element vertex 8
property float x
property float y
property float z
property uchar red
property uchar green
property uchar blue
element edge 12
property int vertex1
property int vertex2
end_header
5574.82 242.304 -1455.28 0 0 255
5557.86 26.2013 -1455.47 0 0 255
6483.73 -46.4313 -1465.63 0 0 255
6500.68 169.672 -1465.44 0 0 255
5575.12 242.256 -1427.28 0 0 255
5558.17 26.1532 -1427.47 0 0 255
6484.03 -46.4795 -1437.63 0 0 255
6500.99 169.624 -1437.45 0 0 255
0 1
1 2
2 3
3 0
4 5
5 6
6 7
7 4
0 4
1 5
2 6
3 7
