ply
format ascii 1.0
element vertex 8
property float x
property float y
property float z
property uchar red
property uchar green
property uchar blue
element edge 12
property int vertex1
property int vertex2
end_header
8990.93 23.0891 -1461.66 0 0 255
8951.82 249.38 -1450.16 0 0 255
8028.86 90.0626 -1454.58 0 0 255
8067.98 -136.228 -1466.08 0 0 255
8991.04 21.6868 -1433.69 0 0 255
8951.93 247.978 -1422.19 0 0 255
8028.97 88.6602 -1426.62 0 0 255
8068.09 -137.631 -1438.12 0 0 255
0 1
1 2
2 3
3 0
4 5
5 6
6 7
7 4
0 4
1 5
2 6
3 7
