ply
format ascii 1.0
element vertex 8
property float x
property float y
property float z
property uchar red
property uchar green
property uchar blue
element edge 12
property int vertex1
property int vertex2
end_header
5608.51 418.064 -1464.43 0 0 255
5585.6 234.16 -1467.04 0 0 255
6503.98 119.63 -1458.48 0 0 255
6526.89 303.534 -1455.87 0 0 255
5608.2 417.705 -1436.43 0 0 255
5585.29 233.801 -1439.04 0 0 255
6503.68 119.27 -1430.48 0 0 255
6526.59 303.174 -1427.87 0 0 255
0 1
1 2
2 3
3 0
4 5
5 6
6 7
7 4
0 4
1 5
2 6
3 7
