ply
format ascii 1.0
element vertex 8
property float x
property float y
property float z
property uchar red
property uchar green
property uchar blue
element edge 12
property int vertex1
property int vertex2
end_header
132.869 232.647 -1443.28 0 0 255
-81.9071 303.483 -1459.36 0 0 255
-358.29 -538.745 -1477.99 0 0 255
-143.515 -609.581 -1461.91 0 0 255
130.798 232.709 -1415.36 0 0 255
-83.9776 303.545 -1431.44 0 0 255
-360.361 -538.683 -1450.07 0 0 255
-145.585 -609.519 -1433.99 0 0 255
0 1
1 2
2 3
3 0
4 5
5 6
6 7
7 4
0 4
1 5
2 6
3 7
