ply
format ascii 1.0
element vertex 8
property float x
property float y
property float z
property uchar red
property uchar green
property uchar blue
element edge 12
property int vertex1
property int vertex2
end_header
2570.15 203.355 -1459.44 0 0 255
2383.71 330.326 -1465.53 0 0 255
1859.51 -439.403 -1466.31 0 0 255
2045.95 -566.375 -1460.22 0 0 255
2569.51 203.761 -1431.45 0 0 255
2383.07 330.733 -1437.54 0 0 255
1858.87 -438.997 -1438.32 0 0 255
2045.31 -565.969 -1432.23 0 0 255
0 1
1 2
2 3
3 0
4 5
5 6
6 7
7 4
0 4
1 5
2 6
3 7
