ply
format ascii 1.0
element vertex 8
property float x
property float y
property float z
property uchar red
property uchar green
property uchar blue
element edge 12
property int vertex1
property int vertex2
end_header
12002.2 -377.623 -1454.97 0 0 255
11932.9 -16.8876 -1445.75 0 0 255
11025.7 -190.913 -1457.8 0 0 255
11095 -551.648 -1467.02 0 0 255
12002 -378.382 -1426.98 0 0 255
11932.7 -17.6463 -1417.76 0 0 255
11025.4 -191.671 -1429.81 0 0 255
11094.8 -552.407 -1439.03 0 0 255
0 1
1 2
2 3
3 0
4 5
5 6
6 7
7 4
0 4
1 5
2 6
3 7
