ply
format ascii 1.0
element vertex 8
property float x
property float y
property float z
property uchar red
property uchar green
property uchar blue
element edge 12
property int vertex1
property int vertex2
end_header
9358.93 438.009 -1467.13 0 0 255
9337.09 33.6501 -1450.69 0 0 255
10262.2 -16.1472 -1446.71 0 0 255
10284.1 388.211 -1463.15 0 0 255
9358.87 439.149 -1439.16 0 0 255
9337.03 34.7907 -1422.72 0 0 255
10262.2 -15.0065 -1418.73 0 0 255
10284 389.352 -1435.17 0 0 255
0 1
1 2
2 3
3 0
4 5
5 6
6 7
7 4
0 4
1 5
2 6
3 7
