ply
format ascii 1.0
element vertex 8
property float x
property float y
property float z
property uchar red
property uchar green
property uchar blue
element edge 12
property int vertex1
property int vertex2
end_header
7208.79 527.762 -1464.79 0 0 255
7136.52 185.725 -1462.77 0 0 255
8024.99 -1.87245 -1442.11 0 0 255
8097.26 340.164 -1444.14 0 0 255
7208.2 528.052 -1436.8 0 0 255
7135.93 186.015 -1434.78 0 0 255
8024.4 -1.58223 -1414.12 0 0 255
8096.67 340.455 -1416.14 0 0 255
0 1
1 2
2 3
3 0
4 5
5 6
6 7
7 4
0 4
1 5
2 6
3 7
