ply
format ascii 1.0
element vertex 8
property float x
property float y
property float z
property uchar red
property uchar green
property uchar blue
element edge 12
property int vertex1
property int vertex2
end_header
3697.45 252.798 -1454.26 0 0 255
3301.47 335.274 -1467.42 0 0 255
3111.25 -577.866 -1466.61 0 0 255
3507.23 -660.343 -1453.45 0 0 255
3696.57 253.007 -1426.28 0 0 255
3300.59 335.484 -1439.43 0 0 255
3110.37 -577.657 -1438.63 0 0 255
3506.35 -660.133 -1425.47 0 0 255
0 1
1 2
2 3
3 0
4 5
5 6
6 7
7 4
0 4
1 5
2 6
3 7
