ply
format ascii 1.0
element vertex 8
property float x
property float y
property float z
property uchar red
property uchar green
property uchar blue
element edge 12
property int vertex1
property int vertex2
end_header
487.803 44.7842 -1464.26 0 0 255
482.599 -184.055 -1469.31 0 0 255
1426.79 -205.786 -1457.54 0 0 255
1431.99 23.0538 -1452.49 0 0 255
487.44 44.1751 -1436.27 0 0 255
482.236 -184.665 -1441.32 0 0 255
1426.43 -206.395 -1429.55 0 0 255
1431.63 22.4446 -1424.5 0 0 255
0 1
1 2
2 3
3 0
4 5
5 6
6 7
7 4
0 4
1 5
2 6
3 7
