ply
format ascii 1.0
element vertex 8
property float x
property float y
property float z
property uchar red
property uchar green
property uchar blue
element edge 12
property int vertex1
property int vertex2
end_header
8074.04 471.853 -1460.11 0 0 255
7720.61 415.873 -1460.25 0 0 255
7870.92 -533.191 -1448.26 0 0 255
8224.36 -477.211 -1448.12 0 0 255
8073.97 472.196 -1432.12 0 0 255
7720.54 416.217 -1432.25 0 0 255
7870.86 -532.847 -1420.26 0 0 255
8224.29 -476.868 -1420.12 0 0 255
0 1
1 2
2 3
3 0
4 5
5 6
6 7
7 4
0 4
1 5
2 6
3 7
