ply
format ascii 1.0
element vertex 8
property float x
property float y
property float z
property uchar red
property uchar green
property uchar blue
element edge 12
property int vertex1
property int vertex2
end_header
1548.97 265.813 -1452.68 0 0 255
1280.47 288.892 -1460.83 0 0 255
1201.58 -629.939 -1463.73 0 0 255
1470.07 -653.018 -1455.58 0 0 255
1548.11 265.798 -1424.69 0 0 255
1279.62 288.877 -1432.84 0 0 255
1200.73 -629.955 -1435.74 0 0 255
1469.22 -653.033 -1427.59 0 0 255
0 1
1 2
2 3
3 0
4 5
5 6
6 7
7 4
0 4
1 5
2 6
3 7
