ply
format ascii 1.0
element vertex 8
property float x
property float y
property float z
property uchar red
property uchar green
property uchar blue
element edge 12
property int vertex1
property int vertex2
end_header
9582.01 -75.5672 -1440.44 0 0 255
9497.06 246.442 -1442.13 0 0 255
8610.01 12.2836 -1469.52 0 0 255
8694.96 -309.725 -1467.83 0 0 255
9581.16 -75.6432 -1412.46 0 0 255
9496.21 246.366 -1414.14 0 0 255
8609.16 12.2075 -1441.53 0 0 255
8694.11 -309.801 -1439.84 0 0 255
0 1
1 2
2 3
3 0
4 5
5 6
6 7
7 4
0 4
1 5
2 6
3 7
