ply
format ascii 1.0
element vertex 8
property float x
property float y
property float z
property uchar red
property uchar green
property uchar blue
element edge 12
property int vertex1
property int vertex2
end_header
7697.03 -390.081 -1464.85 0 0 255
7681.73 -116.585 -1455.56 0 0 255
6779.11 -167.307 -1448.79 0 0 255
6794.41 -440.803 -1458.08 0 0 255
7697.29 -391.017 -1436.87 0 0 255
7681.99 -117.521 -1427.57 0 0 255
6779.37 -168.243 -1420.81 0 0 255
6794.67 -441.739 -1430.1 0 0 255
0 1
1 2
2 3
3 0
4 5
5 6
6 7
7 4
0 4
1 5
2 6
3 7
