ply
format ascii 1.0
element vertex 8
property float x
property float y
property float z
property uchar red
property uchar green
property uchar blue
element edge 12
property int vertex1
property int vertex2
end_header
4056.02 288.673 -1467.52 0 0 255
3815.23 324.348 -1466.7 0 0 255
3681.8 -576.514 -1454.91 0 0 255
3922.58 -612.189 -1455.74 0 0 255
4056.16 289.018 -1439.52 0 0 255
3815.37 324.693 -1438.7 0 0 255
3681.94 -576.17 -1426.92 0 0 255
3922.73 -611.845 -1427.74 0 0 255
0 1
1 2
2 3
3 0
4 5
5 6
6 7
7 4
0 4
1 5
2 6
3 7
