ply
format ascii 1.0
element vertex 8
property float x
property float y
property float z
property uchar red
property uchar green
property uchar blue
element edge 12
property int vertex1
property int vertex2
end_header
9375.3 149.46 -1458.71 0 0 255
9348.49 -177.734 -1460.89 0 0 255
10260.7 -252.46 -1463.79 0 0 255
10287.5 74.7343 -1461.61 0 0 255
9375.37 149.267 -1430.71 0 0 255
9348.57 -177.926 -1432.89 0 0 255
10260.8 -252.652 -1435.79 0 0 255
10287.6 74.5421 -1433.61 0 0 255
0 1
1 2
2 3
3 0
4 5
5 6
6 7
7 4
0 4
1 5
2 6
3 7
