ply
format ascii 1.0
element vertex 8
property float x
property float y
property float z
property uchar red
property uchar green
property uchar blue
element edge 12
property int vertex1
property int vertex2
end_header
1719.51 332.991 -1442.72 0 0 255
1361.67 288.872 -1448.48 0 0 255
1478.69 -658.22 -1464.4 0 0 255
1836.53 -614.101 -1458.64 0 0 255
1719.12 332.473 -1414.73 0 0 255
1361.28 288.354 -1420.49 0 0 255
1478.3 -658.738 -1436.41 0 0 255
1836.14 -614.62 -1430.65 0 0 255
0 1
1 2
2 3
3 0
4 5
5 6
6 7
7 4
0 4
1 5
2 6
3 7
