ply
format ascii 1.0
element vertex 8
property float x
property float y
property float z
property uchar red
property uchar green
property uchar blue
element edge 12
property int vertex1
property int vertex2
end_header
4789.21 449.834 -1458.33 0 0 255
4788.73 115.018 -1455.53 0 0 255
5714.38 113.705 -1454.85 0 0 255
5714.85 448.521 -1457.66 0 0 255
4789.19 450.069 -1430.33 0 0 255
4788.71 115.252 -1427.53 0 0 255
5714.36 113.94 -1426.85 0 0 255
5714.83 448.756 -1429.66 0 0 255
0 1
1 2
2 3
3 0
4 5
5 6
6 7
7 4
0 4
1 5
2 6
3 7
