ply
format ascii 1.0
element vertex 8
property float x
property float y
property float z
property uchar red
property uchar green
property uchar blue
element edge 12
property int vertex1
property int vertex2
end_header
3794.99 270.296 -1465.61 0 0 255
3512 257.616 -1465.95 0 0 255
3552.77 -652.731 -1454.72 0 0 255
3835.77 -640.051 -1454.38 0 0 255
3794.94 270.639 -1437.61 0 0 255
3511.95 257.959 -1437.95 0 0 255
3552.72 -652.388 -1426.72 0 0 255
3835.72 -639.708 -1426.38 0 0 255
0 1
1 2
2 3
3 0
4 5
5 6
6 7
7 4
0 4
1 5
2 6
3 7
