ply
format ascii 1.0
element vertex 8
property float x
property float y
property float z
property uchar red
property uchar green
property uchar blue
element edge 12
property int vertex1
property int vertex2
end_header
2925.63 347.205 -1451.33 0 0 255
2839.13 549.948 -1448.54 0 0 255
1994.98 190.089 -1469.9 0 0 255
2081.48 -12.654 -1472.69 0 0 255
2925.17 346.624 -1423.34 0 0 255
2838.67 549.367 -1420.55 0 0 255
1994.52 189.507 -1441.91 0 0 255
2081.02 -13.2356 -1444.7 0 0 255
0 1
1 2
2 3
3 0
4 5
5 6
6 7
7 4
0 4
1 5
2 6
3 7
