ply
format ascii 1.0
element vertex 8
property float x
property float y
property float z
property uchar red
property uchar green
property uchar blue
element edge 12
property int vertex1
property int vertex2
end_header
2572.35 202.456 -1459.42 0 0 255
2381.63 332.141 -1465.37 0 0 255
1856.45 -440.244 -1466.42 0 0 255
2047.17 -569.929 -1460.48 0 0 255
2571.73 202.835 -1431.43 0 0 255
2381.02 332.521 -1437.38 0 0 255
1855.84 -439.865 -1438.43 0 0 255
2046.56 -569.55 -1432.49 0 0 255
0 1
1 2
2 3
3 0
4 5
5 6
6 7
7 4
0 4
1 5
2 6
3 7
