ply
format ascii 1.0
element vertex 8
property float x
property float y
property float z
property uchar red
property uchar green
property uchar blue
element edge 12
property int vertex1
property int vertex2
end_header
2358.79 532.88 -1461.65 0 0 255
2110.92 598.266 -1468.42 0 0 255
1878.73 -281.746 -1466.5 0 0 255
2126.6 -347.132 -1459.73 0 0 255
2358.09 533.126 -1433.66 0 0 255
2110.22 598.512 -1440.43 0 0 255
1878.03 -281.5 -1438.51 0 0 255
2125.9 -346.886 -1431.74 0 0 255
0 1
1 2
2 3
3 0
4 5
5 6
6 7
7 4
0 4
1 5
2 6
3 7
