ply
format ascii 1.0
element vertex 8
property float x
property float y
property float z
property uchar red
property uchar green
property uchar blue
element edge 12
property int vertex1
property int vertex2
end_header
4287.58 313.829 -1459.49 0 0 255
4285.14 -47.78 -1454.63 0 0 255
5216.25 -54.0966 -1456.61 0 0 255
5218.69 307.512 -1461.48 0 0 255
4287.64 314.205 -1431.49 0 0 255
4285.2 -47.4037 -1426.63 0 0 255
5216.31 -53.7202 -1428.61 0 0 255
5218.76 307.889 -1433.48 0 0 255
0 1
1 2
2 3
3 0
4 5
5 6
6 7
7 4
0 4
1 5
2 6
3 7
