ply
format ascii 1.0
element vertex 8
property float x
property float y
property float z
property uchar red
property uchar green
property uchar blue
element edge 12
property int vertex1
property int vertex2
end_header
2358.48 533.348 -1461.78 0 0 255
2111.49 598.478 -1468.55 0 0 255
1879.79 -279.978 -1466.28 0 0 255
2126.78 -345.108 -1459.5 0 0 255
2357.78 533.605 -1433.79 0 0 255
2110.79 598.735 -1440.56 0 0 255
1879.09 -279.721 -1438.29 0 0 255
2126.08 -344.851 -1431.51 0 0 255
0 1
1 2
2 3
3 0
4 5
5 6
6 7
7 4
0 4
1 5
2 6
3 7
