ply
format ascii 1.0
element vertex 8
property float x
property float y
property float z
property uchar red
property uchar green
property uchar blue
element edge 12
property int vertex1
property int vertex2
end_header
6507.9 -189.546 -1463.95 0 0 255
6488.9 88.3734 -1461.66 0 0 255
5560.28 24.8407 -1457.35 0 0 255
5579.29 -253.079 -1459.64 0 0 255
6508.05 -189.767 -1435.96 0 0 255
6489.05 88.1526 -1433.67 0 0 255
5560.43 24.6198 -1429.35 0 0 255
5579.43 -253.3 -1431.64 0 0 255
0 1
1 2
2 3
3 0
4 5
5 6
6 7
7 4
0 4
1 5
2 6
3 7
