ply
format ascii 1.0
element vertex 8
property float x
property float y
property float z
property uchar red
property uchar green
property uchar blue
element edge 12
property int vertex1
property int vertex2
end_header
11984.9 -15.832 -1453.96 0 0 255
11965.2 299.403 -1454.45 0 0 255
11039.9 241.542 -1462.35 0 0 255
11059.7 -73.6926 -1461.86 0 0 255
11984.7 -15.8034 -1425.96 0 0 255
11965 299.431 -1426.46 0 0 255
11039.7 241.571 -1434.36 0 0 255
11059.4 -73.6639 -1433.86 0 0 255
0 1
1 2
2 3
3 0
4 5
5 6
6 7
7 4
0 4
1 5
2 6
3 7
