ply
format ascii 1.0
element vertex 8
property float x
property float y
property float z
property uchar red
property uchar green
property uchar blue
element edge 12
property int vertex1
property int vertex2
end_header
3579.37 544.056 -1455.83 0 0 255
3466.99 203.35 -1454.8 0 0 255
4331.55 -81.8457 -1460.51 0 0 255
4443.93 258.86 -1461.54 0 0 255
3579.56 544.077 -1427.83 0 0 255
3467.18 203.372 -1426.8 0 0 255
4331.74 -81.8243 -1432.51 0 0 255
4444.13 258.881 -1433.54 0 0 255
0 1
1 2
2 3
3 0
4 5
5 6
6 7
7 4
0 4
1 5
2 6
3 7
