ply
format ascii 1.0
element vertex 8
property float x
property float y
property float z
property uchar red
property uchar green
property uchar blue
element edge 12
property int vertex1
property int vertex2
end_header
4054.64 287.954 -1467.28 0 0 255
3814.18 323.119 -1466.62 0 0 255
3682.38 -578.341 -1455.04 0 0 255
3922.84 -613.506 -1455.7 0 0 255
4054.77 288.295 -1439.28 0 0 255
3814.31 323.46 -1438.62 0 0 255
3682.51 -578 -1427.04 0 0 255
3922.97 -613.166 -1427.71 0 0 255
0 1
1 2
2 3
3 0
4 5
5 6
6 7
7 4
0 4
1 5
2 6
3 7
