ply
format ascii 1.0
element vertex 8
property float x
property float y
property float z
property uchar red
property uchar green
property uchar blue
element edge 12
property int vertex1
property int vertex2
end_header
5223.24 -176.104 -1464.46 0 0 255
5218.45 62.2846 -1460.55 0 0 255
4304.82 43.8959 -1457.75 0 0 255
4309.61 -194.493 -1461.66 0 0 255
5223.34 -176.561 -1436.46 0 0 255
5218.55 61.8273 -1432.55 0 0 255
4304.91 43.4386 -1429.75 0 0 255
4309.7 -194.95 -1433.66 0 0 255
0 1
1 2
2 3
3 0
4 5
5 6
6 7
7 4
0 4
1 5
2 6
3 7
