ply
format ascii 1.0
element vertex 8
property float x
property float y
property float z
property uchar red
property uchar green
property uchar blue
element edge 12
property int vertex1
property int vertex2
end_header
206.004 388.617 -1458.1 0 0 255
-1.66562 400.114 -1458.94 0 0 255
-51.4665 -499.935 -1465.27 0 0 255
156.204 -511.431 -1464.43 0 0 255
205.881 388.427 -1430.1 0 0 255
-1.78947 399.924 -1430.94 0 0 255
-51.5903 -500.125 -1437.27 0 0 255
156.08 -511.622 -1436.43 0 0 255
0 1
1 2
2 3
3 0
4 5
5 6
6 7
7 4
0 4
1 5
2 6
3 7
