ply
format ascii 1.0
element vertex 8
property float x
property float y
property float z
property uchar red
property uchar green
property uchar blue
element edge 12
property int vertex1
property int vertex2
end_header
9918.02 454.06 -1451.27 0 0 255
9868.5 62.5399 -1455.36 0 0 255
10798.9 -55.0686 -1463.02 0 0 255
10848.4 336.452 -1458.93 0 0 255
9918.22 453.744 -1423.28 0 0 255
9868.69 62.2234 -1427.37 0 0 255
10799.1 -55.3852 -1435.03 0 0 255
10848.6 336.135 -1430.94 0 0 255
0 1
1 2
2 3
3 0
4 5
5 6
6 7
7 4
0 4
1 5
2 6
3 7
