ply
format ascii 1.0
element vertex 8
property float x
property float y
property float z
property uchar red
property uchar green
property uchar blue
element edge 12
property int vertex1
property int vertex2
end_header
7677.55 -233.809 -1463.97 0 0 255
7680.85 56.0186 -1462.65 0 0 255
6770.18 66.3077 -1450.93 0 0 255
6766.89 -223.52 -1452.25 0 0 255
7677.91 -233.941 -1435.97 0 0 255
7681.21 55.8869 -1434.65 0 0 255
6770.54 66.176 -1422.93 0 0 255
6767.25 -223.652 -1424.25 0 0 255
0 1
1 2
2 3
3 0
4 5
5 6
6 7
7 4
0 4
1 5
2 6
3 7
