ply
format ascii 1.0
element vertex 8
property float x
property float y
property float z
property uchar red
property uchar green
property uchar blue
element edge 12
property int vertex1
property int vertex2
end_header
4287.07 314.03 -1459.61 0 0 255
4284.29 -46.9548 -1454.57 0 0 255
5215.65 -54.1652 -1456.38 0 0 255
5218.43 306.82 -1461.42 0 0 255
4287.13 314.421 -1431.61 0 0 255
4284.34 -46.5643 -1426.57 0 0 255
5215.71 -53.7747 -1428.38 0 0 255
5218.49 307.211 -1433.42 0 0 255
0 1
1 2
2 3
3 0
4 5
5 6
6 7
7 4
0 4
1 5
2 6
3 7
