ply
format ascii 1.0
element vertex 8
property float x
property float y
property float z
property uchar red
property uchar green
property uchar blue
element edge 12
property int vertex1
property int vertex2
end_header
3217.09 -184.219 -1450.04 0 0 255
3042.03 128.243 -1451.77 0 0 255
2247.62 -316.89 -1465.51 0 0 255
2422.68 -629.353 -1463.77 0 0 255
3216.65 -184.307 -1422.04 0 0 255
3041.6 128.155 -1423.78 0 0 255
2247.19 -316.978 -1437.51 0 0 255
2422.24 -629.44 -1435.78 0 0 255
0 1
1 2
2 3
3 0
4 5
5 6
6 7
7 4
0 4
1 5
2 6
3 7
