ply
format ascii 1.0
element vertex 8
property float x
property float y
property float z
property uchar red
property uchar green
property uchar blue
element edge 12
property int vertex1
property int vertex2
end_header
572.274 345.427 -1465.14 0 0 255
167.823 408.957 -1465 0 0 255
23.6472 -508.945 -1450.18 0 0 255
428.097 -572.475 -1450.31 0 0 255
572.352 345.867 -1437.14 0 0 255
167.902 409.397 -1437.01 0 0 255
23.7254 -508.505 -1422.18 0 0 255
428.175 -572.035 -1422.31 0 0 255
0 1
1 2
2 3
3 0
4 5
5 6
6 7
7 4
0 4
1 5
2 6
3 7
