ply
format ascii 1.0
element vertex 8
property float x
property float y
property float z
property uchar red
property uchar green
property uchar blue
element edge 12
property int vertex1
property int vertex2
end_header
7893.43 330.681 -1451.65 0 0 255
7590.51 311.24 -1456.22 0 0 255
7649.61 -608.663 -1460.15 0 0 255
7952.53 -589.222 -1455.58 0 0 255
7893.01 330.535 -1423.65 0 0 255
7590.1 311.094 -1428.22 0 0 255
7649.19 -608.809 -1432.15 0 0 255
7952.11 -589.368 -1427.58 0 0 255
0 1
1 2
2 3
3 0
4 5
5 6
6 7
7 4
0 4
1 5
2 6
3 7
