ply
format ascii 1.0
element vertex 8
property float x
property float y
property float z
property uchar red
property uchar green
property uchar blue
element edge 12
property int vertex1
property int vertex2
end_header
12005.4 -201.013 -1456.11 0 0 255
11975.7 135.842 -1452.76 0 0 255
11045 53.8543 -1457.6 0 0 255
11074.7 -283.001 -1460.94 0 0 255
12005.3 -201.302 -1428.11 0 0 255
11975.6 135.553 -1424.77 0 0 255
11044.9 53.5658 -1429.6 0 0 255
11074.6 -283.289 -1432.94 0 0 255
0 1
1 2
2 3
3 0
4 5
5 6
6 7
7 4
0 4
1 5
2 6
3 7
