ply
format ascii 1.0
element vertex 8
property float x
property float y
property float z
property uchar red
property uchar green
property uchar blue
element edge 12
property int vertex1
property int vertex2
end_header
8090.61 482.818 -1460.98 0 0 255
7716.72 429.137 -1460.53 0 0 255
7855.31 -536.014 -1447.69 0 0 255
8229.19 -482.333 -1448.14 0 0 255
8090.59 483.188 -1432.98 0 0 255
7716.7 429.507 -1432.53 0 0 255
7855.29 -535.645 -1419.7 0 0 255
8229.17 -481.964 -1420.15 0 0 255
0 1
1 2
2 3
3 0
4 5
5 6
6 7
7 4
0 4
1 5
2 6
3 7
