ply
format ascii 1.0
element vertex 8
property float x
property float y
property float z
property uchar red
property uchar green
property uchar blue
element edge 12
property int vertex1
property int vertex2
end_header
3101.98 313.841 -1467.96 0 0 255
3073.26 138.636 -1466.2 0 0 255
3978.96 -9.71268 -1456.39 0 0 255
4007.68 165.492 -1458.16 0 0 255
3101.73 314.165 -1439.97 0 0 255
3073.01 138.96 -1438.2 0 0 255
3978.71 -9.3893 -1428.4 0 0 255
4007.43 165.816 -1430.16 0 0 255
0 1
1 2
2 3
3 0
4 5
5 6
6 7
7 4
0 4
1 5
2 6
3 7
