ply
format ascii 1.0
element vertex 8
property float x
property float y
property float z
property uchar red
property uchar green
property uchar blue
element edge 12
property int vertex1
property int vertex2
end_header
3214.78 -181.589 -1450.02 0 0 255
3037.95 128.612 -1451.49 0 0 255
2247.26 -322.176 -1465.67 0 0 255
2424.08 -632.377 -1464.2 0 0 255
3214.34 -181.705 -1422.03 0 0 255
3037.52 128.496 -1423.5 0 0 255
2246.82 -322.292 -1437.67 0 0 255
2423.64 -632.492 -1436.2 0 0 255
0 1
1 2
2 3
3 0
4 5
5 6
6 7
7 4
0 4
1 5
2 6
3 7
