ply
format ascii 1.0
element vertex 8
property float x
property float y
property float z
property uchar red
property uchar green
property uchar blue
element edge 12
property int vertex1
property int vertex2
end_header
9357.39 439.63 -1467.43 0 0 255
9336.42 30.8288 -1450.38 0 0 255
10264.5 -16.6173 -1446.57 0 0 255
10285.4 392.184 -1463.63 0 0 255
9357.34 440.8 -1439.46 0 0 255
9336.37 31.9985 -1422.41 0 0 255
10264.4 -15.4476 -1418.6 0 0 255
10285.4 393.354 -1435.65 0 0 255
0 1
1 2
2 3
3 0
4 5
5 6
6 7
7 4
0 4
1 5
2 6
3 7
