ply
format ascii 1.0
element vertex 8
property float x
property float y
property float z
property uchar red
property uchar green
property uchar blue
element edge 12
property int vertex1
property int vertex2
end_header
2925.09 346.329 -1451.58 0 0 255
2837.89 550.254 -1448.62 0 0 255
1992.72 189.176 -1470.08 0 0 255
2079.92 -14.7495 -1473.04 0 0 255
2924.63 345.728 -1423.59 0 0 255
2837.44 549.653 -1420.63 0 0 255
1992.26 188.575 -1442.09 0 0 255
2079.46 -15.3504 -1445.05 0 0 255
0 1
1 2
2 3
3 0
4 5
5 6
6 7
7 4
0 4
1 5
2 6
3 7
