ply
format ascii 1.0
element vertex 8
property float x
property float y
property float z
property uchar red
property uchar green
property uchar blue
element edge 12
property int vertex1
property int vertex2
end_header
6776.15 470.779 -1442.2 0 0 255
6693.1 99.4547 -1461.35 0 0 255
7616.26 -106.68 -1468.13 0 0 255
7699.31 264.644 -1448.98 0 0 255
6776.04 469.362 -1414.24 0 0 255
6692.99 98.0375 -1433.38 0 0 255
7616.15 -108.098 -1440.17 0 0 255
7699.2 263.227 -1421.02 0 0 255
0 1
1 2
2 3
3 0
4 5
5 6
6 7
7 4
0 4
1 5
2 6
3 7
