ply
format ascii 1.0
element vertex 8
property float x
property float y
property float z
property uchar red
property uchar green
property uchar blue
element edge 12
property int vertex1
property int vertex2
end_header
5574.23 242.412 -1455.51 0 0 255
5557.35 26.2665 -1455.32 0 0 255
6485.5 -46.2291 -1465.54 0 0 255
6502.38 169.917 -1465.72 0 0 255
5574.54 242.413 -1427.51 0 0 255
5557.66 26.2668 -1427.32 0 0 255
6485.81 -46.2289 -1437.54 0 0 255
6502.69 169.917 -1437.73 0 0 255
0 1
1 2
2 3
3 0
4 5
5 6
6 7
7 4
0 4
1 5
2 6
3 7
