ply
format ascii 1.0
element vertex 8
property float x
property float y
property float z
property uchar red
property uchar green
property uchar blue
element edge 12
property int vertex1
property int vertex2
end_header
1714.84 329.387 -1443.07 0 0 255
1362.22 283.56 -1448.37 0 0 255
1484.78 -657.61 -1464.08 0 0 255
1837.39 -611.782 -1458.78 0 0 255
1714.48 328.873 -1415.08 0 0 255
1361.87 283.046 -1420.37 0 0 255
1484.42 -658.123 -1436.09 0 0 255
1837.04 -612.296 -1430.79 0 0 255
0 1
1 2
2 3
3 0
4 5
5 6
6 7
7 4
0 4
1 5
2 6
3 7
