ply
format ascii 1.0
element vertex 8
property float x
property float y
property float z
property uchar red
property uchar green
property uchar blue
element edge 12
property int vertex1
property int vertex2
end_header
7697.6 -390.068 -1464.91 0 0 255
7682.3 -116.57 -1455.58 0 0 255
6778.87 -167.338 -1448.74 0 0 255
6794.17 -440.836 -1458.07 0 0 255
7697.87 -391.008 -1436.93 0 0 255
7682.57 -117.51 -1427.6 0 0 255
6779.14 -168.277 -1420.76 0 0 255
6794.44 -441.775 -1430.08 0 0 255
0 1
1 2
2 3
3 0
4 5
5 6
6 7
7 4
0 4
1 5
2 6
3 7
