ply
format ascii 1.0
element vertex 8
property float x
property float y
property float z
property uchar red
property uchar green
property uchar blue
element edge 12
property int vertex1
property int vertex2
end_header
7200.57 532.211 -1464.91 0 0 255
7127.14 185.031 -1463.05 0 0 255
8033.23 -6.48389 -1442.06 0 0 255
8106.66 340.696 -1443.93 0 0 255
7199.98 532.486 -1436.92 0 0 255
7126.55 185.307 -1435.05 0 0 255
8032.64 -6.20867 -1414.07 0 0 255
8106.07 340.971 -1415.93 0 0 255
0 1
1 2
2 3
3 0
4 5
5 6
6 7
7 4
0 4
1 5
2 6
3 7
