ply
format ascii 1.0
element vertex 8
property float x
property float y
property float z
property uchar red
property uchar green
property uchar blue
element edge 12
property int vertex1
property int vertex2
end_header
1434 45.5483 -1455.42 0 0 255
1404.18 278.764 -1449.46 0 0 255
485.367 161.545 -1460.55 0 0 255
515.192 -71.67 -1466.5 0 0 255
1433.76 44.8025 -1427.43 0 0 255
1403.94 278.018 -1421.47 0 0 255
485.125 160.8 -1432.56 0 0 255
514.949 -72.4158 -1438.51 0 0 255
0 1
1 2
2 3
3 0
4 5
5 6
6 7
7 4
0 4
1 5
2 6
3 7
