ply
format ascii 1.0
element vertex 8
property float x
property float y
property float z
property uchar red
property uchar green
property uchar blue
element edge 12
property int vertex1
property int vertex2
end_header
6970.46 -160.905 -1455.71 0 0 255
6869.03 144.51 -1450.87 0 0 255
6189.31 -81.1715 -1454.27 0 0 255
6290.74 -386.587 -1459.12 0 0 255
6970.46 -161.347 -1427.71 0 0 255
6869.03 144.069 -1422.87 0 0 255
6189.32 -81.6133 -1426.28 0 0 255
6290.75 -387.029 -1431.12 0 0 255
0 1
1 2
2 3
3 0
4 5
5 6
6 7
7 4
0 4
1 5
2 6
3 7
