ply
format ascii 1.0
element vertex 8
property float x
property float y
property float z
property uchar red
property uchar green
property uchar blue
element edge 12
property int vertex1
property int vertex2
end_header
6995.2 298.273 -1461.4 0 0 255
6890.12 525.538 -1460.03 0 0 255
6048.3 136.284 -1456.65 0 0 255
6153.39 -90.9809 -1458.02 0 0 255
6995.36 298.177 -1433.4 0 0 255
6890.28 525.442 -1432.03 0 0 255
6048.46 136.188 -1428.65 0 0 255
6153.54 -91.0768 -1430.02 0 0 255
0 1
1 2
2 3
3 0
4 5
5 6
6 7
7 4
0 4
1 5
2 6
3 7
