ply
format ascii 1.0
element vertex 8
property float x
property float y
property float z
property uchar red
property uchar green
property uchar blue
element edge 12
property int vertex1
property int vertex2
end_header
10276.3 -457.728 -1463.17 0 0 255
10258.4 -98.8484 -1463.6 0 0 255
9350.02 -144.257 -1454.99 0 0 255
9367.97 -503.137 -1454.56 0 0 255
10276.6 -457.681 -1435.17 0 0 255
10258.7 -98.8017 -1435.6 0 0 255
9350.28 -144.21 -1426.99 0 0 255
9368.23 -503.09 -1426.56 0 0 255
0 1
1 2
2 3
3 0
4 5
5 6
6 7
7 4
0 4
1 5
2 6
3 7
