ply
format ascii 1.0
element vertex 8
property float x
property float y
property float z
property uchar red
property uchar green
property uchar blue
element edge 12
property int vertex1
property int vertex2
end_header
-335.861 381.051 -1464.88 0 0 255
-513.985 348.693 -1465.78 0 0 255
-349.691 -555.789 -1462.77 0 0 255
-171.567 -523.43 -1461.87 0 0 255
-336.015 381.116 -1436.88 0 0 255
-514.139 348.758 -1437.78 0 0 255
-349.844 -555.724 -1434.78 0 0 255
-171.72 -523.365 -1433.87 0 0 255
0 1
1 2
2 3
3 0
4 5
5 6
6 7
7 4
0 4
1 5
2 6
3 7
