ply
format ascii 1.0
element vertex 8
property float x
property float y
property float z
property uchar red
property uchar green
property uchar blue
element edge 12
property int vertex1
property int vertex2
end_header
7714.61 312.932 -1450.5 0 0 255
7406.83 306.258 -1452.65 0 0 255
7426.16 -582.441 -1460.33 0 0 255
7733.94 -575.767 -1458.18 0 0 255
7714.42 312.686 -1422.51 0 0 255
7406.64 306.012 -1424.65 0 0 255
7425.97 -582.687 -1432.33 0 0 255
7733.75 -576.013 -1430.18 0 0 255
0 1
1 2
2 3
3 0
4 5
5 6
6 7
7 4
0 4
1 5
2 6
3 7
