ply
format ascii 1.0
element vertex 8
property float x
property float y
property float z
property uchar red
property uchar green
property uchar blue
element edge 12
property int vertex1
property int vertex2
end_header
1007.25 455.682 -1458.83 0 0 255
997.039 183.156 -1451.42 0 0 255
1938.13 147.845 -1453.79 0 0 255
1948.34 420.371 -1461.21 0 0 255
1007.35 456.44 -1430.85 0 0 255
997.139 183.914 -1423.43 0 0 255
1938.23 148.603 -1425.8 0 0 255
1948.44 421.129 -1433.22 0 0 255
0 1
1 2
2 3
3 0
4 5
5 6
6 7
7 4
0 4
1 5
2 6
3 7
