ply
format ascii 1.0
element vertex 8
property float x
property float y
property float z
property uchar red
property uchar green
property uchar blue
element edge 12
property int vertex1
property int vertex2
end_header
3103.88 464.958 -1458.66 0 0 255
2876.32 582.319 -1457.3 0 0 255
2451.35 -241.645 -1461.23 0 0 255
2678.9 -359.005 -1462.6 0 0 255
3103.96 464.784 -1430.66 0 0 255
2876.4 582.145 -1429.3 0 0 255
2451.42 -241.819 -1433.23 0 0 255
2678.98 -359.179 -1434.6 0 0 255
0 1
1 2
2 3
3 0
4 5
5 6
6 7
7 4
0 4
1 5
2 6
3 7
