ply
format ascii 1.0
element vertex 8
property float x
property float y
property float z
property uchar red
property uchar green
property uchar blue
element edge 12
property int vertex1
property int vertex2
end_header
492.048 -114.941 -1463.76 0 0 255
477.98 -429.307 -1467.39 0 0 255
1458.72 -473.314 -1457.33 0 0 255
1472.79 -158.948 -1453.7 0 0 255
491.747 -115.251 -1435.77 0 0 255
477.679 -429.617 -1439.4 0 0 255
1458.42 -473.624 -1429.33 0 0 255
1472.49 -159.258 -1425.7 0 0 255
0 1
1 2
2 3
3 0
4 5
5 6
6 7
7 4
0 4
1 5
2 6
3 7
