ply
format ascii 1.0
element vertex 8
property float x
property float y
property float z
property uchar red
property uchar green
property uchar blue
element edge 12
property int vertex1
property int vertex2
end_header
7715.57 312.141 -1450.42 0 0 255
7405.47 305.178 -1452.43 0 0 255
7425.49 -583.965 -1460.53 0 0 255
7735.59 -577.002 -1458.53 0 0 255
7715.4 311.881 -1422.42 0 0 255
7405.29 304.918 -1424.43 0 0 255
7425.31 -584.225 -1432.54 0 0 255
7735.41 -577.261 -1430.53 0 0 255
0 1
1 2
2 3
3 0
4 5
5 6
6 7
7 4
0 4
1 5
2 6
3 7
