ply
format ascii 1.0
element vertex 8
property float x
property float y
property float z
property uchar red
property uchar green
property uchar blue
element edge 12
property int vertex1
property int vertex2
end_header
9886.97 -47.9564 -1452.71 0 0 255
9884.55 -499.685 -1455.45 0 0 255
10846 -504.825 -1458.63 0 0 255
10848.4 -53.0958 -1455.9 0 0 255
9887.06 -48.1264 -1424.71 0 0 255
9884.64 -499.855 -1427.45 0 0 255
10846.1 -504.995 -1430.63 0 0 255
10848.5 -53.2658 -1427.9 0 0 255
0 1
1 2
2 3
3 0
4 5
5 6
6 7
7 4
0 4
1 5
2 6
3 7
