ply
format ascii 1.0
element vertex 8
property float x
property float y
property float z
property uchar red
property uchar green
property uchar blue
element edge 12
property int vertex1
property int vertex2
end_header
572.851 343.303 -1465.12 0 0 255
169.683 407.74 -1464.73 0 0 255
23.3961 -507.637 -1449.95 0 0 255
426.564 -572.074 -1450.34 0 0 255
572.947 343.74 -1437.12 0 0 255
169.78 408.176 -1436.73 0 0 255
23.4928 -507.201 -1421.95 0 0 255
426.66 -571.637 -1422.34 0 0 255
0 1
1 2
2 3
3 0
4 5
5 6
6 7
7 4
0 4
1 5
2 6
3 7
