ply
format ascii 1.0
element vertex 8
property float x
property float y
property float z
property uchar red
property uchar green
property uchar blue
element edge 12
property int vertex1
property int vertex2
end_header
1527.01 266.725 -1453.35 0 0 255
1280.93 283.431 -1462.05 0 0 255
1219.65 -620.053 -1463.55 0 0 255
1465.72 -636.76 -1454.85 0 0 255
1526.02 266.745 -1425.36 0 0 255
1279.94 283.452 -1434.06 0 0 255
1218.66 -620.033 -1435.57 0 0 255
1464.73 -636.74 -1426.87 0 0 255
0 1
1 2
2 3
3 0
4 5
5 6
6 7
7 4
0 4
1 5
2 6
3 7
