ply
format ascii 1.0
element vertex 8
property float x
property float y
property float z
property uchar red
property uchar green
property uchar blue
element edge 12
property int vertex1
property int vertex2
end_header
1429.81 46.3895 -1455.65 0 0 255
1400.24 277.034 -1449.12 0 0 255
491.259 160.82 -1459.88 0 0 255
520.825 -69.8243 -1466.41 0 0 255
1429.58 45.568 -1427.67 0 0 255
1400.02 276.212 -1421.14 0 0 255
491.033 159.998 -1431.9 0 0 255
520.598 -70.6458 -1438.43 0 0 255
0 1
1 2
2 3
3 0
4 5
5 6
6 7
7 4
0 4
1 5
2 6
3 7
