ply
format ascii 1.0
element vertex 8
property float x
property float y
property float z
property uchar red
property uchar green
property uchar blue
element edge 12
property int vertex1
property int vertex2
end_header
396.925 384.817 -1449.54 0 0 255
195.064 640.569 -1455.43 0 0 255
-528.319 69.2546 -1471.12 0 0 255
-326.458 -186.498 -1465.23 0 0 255
396.237 384.919 -1421.55 0 0 255
194.376 640.671 -1427.44 0 0 255
-529.006 69.3566 -1443.13 0 0 255
-327.145 -186.396 -1437.23 0 0 255
0 1
1 2
2 3
3 0
4 5
5 6
6 7
7 4
0 4
1 5
2 6
3 7
