ply
format ascii 1.0
element vertex 8
property float x
property float y
property float z
property uchar red
property uchar green
property uchar blue
element edge 12
property int vertex1
property int vertex2
end_header
2358.34 533.442 -1461.78 0 0 255
2111.16 598.44 -1468.44 0 0 255
1879.83 -281.05 -1466.3 0 0 255
2127.01 -346.048 -1459.64 0 0 255
2357.65 533.691 -1433.79 0 0 255
2110.47 598.689 -1440.45 0 0 255
1879.14 -280.801 -1438.31 0 0 255
2126.32 -345.799 -1431.65 0 0 255
0 1
1 2
2 3
3 0
4 5
5 6
6 7
7 4
0 4
1 5
2 6
3 7
