ply
format ascii 1.0
element vertex 8
property float x
property float y
property float z
property uchar red
property uchar green
property uchar blue
element edge 12
property int vertex1
property int vertex2
end_header
3795.39 271.324 -1465.86 0 0 255
3511.41 258.322 -1465.66 0 0 255
3553.2 -654.274 -1454.61 0 0 255
3837.18 -641.272 -1454.81 0 0 255
3795.4 271.663 -1437.87 0 0 255
3511.42 258.661 -1437.66 0 0 255
3553.21 -653.935 -1426.61 0 0 255
3837.19 -640.933 -1426.82 0 0 255
0 1
1 2
2 3
3 0
4 5
5 6
6 7
7 4
0 4
1 5
2 6
3 7
