ply
format ascii 1.0
element vertex 8
property float x
property float y
property float z
property uchar red
property uchar green
property uchar blue
element edge 12
property int vertex1
property int vertex2
end_header
9543.62 223.192 -1464.41 0 0 255
9353.37 616.037 -1443.15 0 0 255
8502.09 203.781 -1443.08 0 0 255
8692.33 -189.064 -1464.33 0 0 255
9544.21 221.967 -1436.44 0 0 255
9353.97 614.812 -1415.19 0 0 255
8502.68 202.556 -1415.11 0 0 255
8692.93 -190.289 -1436.37 0 0 255
0 1
1 2
2 3
3 0
4 5
5 6
6 7
7 4
0 4
1 5
2 6
3 7
