ply
format ascii 1.0
element vertex 8
property float x
property float y
property float z
property uchar red
property uchar green
property uchar blue
element edge 12
property int vertex1
property int vertex2
end_header
1005.86 460.422 -1458.93 0 0 255
992.941 186.605 -1451.96 0 0 255
1930.57 142.329 -1453.51 0 0 255
1943.49 416.146 -1460.48 0 0 255
1005.94 461.131 -1430.93 0 0 255
993.021 187.314 -1423.97 0 0 255
1930.65 143.037 -1425.52 0 0 255
1943.57 416.854 -1432.49 0 0 255
0 1
1 2
2 3
3 0
4 5
5 6
6 7
7 4
0 4
1 5
2 6
3 7
