ply
format ascii 1.0
element vertex 8
property float x
property float y
property float z
property uchar red
property uchar green
property uchar blue
element edge 12
property int vertex1
property int vertex2
end_header
7715.85 312.213 -1450.41 0 0 255
7405.75 305.517 -1452.54 0 0 255
7424.99 -583.16 -1460.49 0 0 255
7735.09 -576.464 -1458.35 0 0 255
7715.66 311.958 -1422.41 0 0 255
7405.56 305.262 -1424.55 0 0 255
7424.8 -583.415 -1432.49 0 0 255
7734.91 -576.718 -1430.36 0 0 255
0 1
1 2
2 3
3 0
4 5
5 6
6 7
7 4
0 4
1 5
2 6
3 7
