ply
format ascii 1.0
element vertex 8
property float x
property float y
property float z
property uchar red
property uchar green
property uchar blue
element edge 12
property int vertex1
property int vertex2
end_header
9596.54 -91.0005 -1439.88 0 0 255
9513.43 253.176 -1442.99 0 0 255
8605.69 33.7318 -1469.57 0 0 255
8688.8 -310.445 -1466.46 0 0 255
9595.71 -90.9486 -1411.89 0 0 255
9512.6 253.228 -1415 0 0 255
8604.86 33.7837 -1441.58 0 0 255
8687.97 -310.393 -1438.48 0 0 255
0 1
1 2
2 3
3 0
4 5
5 6
6 7
7 4
0 4
1 5
2 6
3 7
