ply
format ascii 1.0
element vertex 8
property float x
property float y
property float z
property uchar red
property uchar green
property uchar blue
element edge 12
property int vertex1
property int vertex2
end_header
8986.84 -443.832 -1459.69 0 0 255
8963.3 -92.467 -1460.46 0 0 255
8034.28 -154.707 -1458.26 0 0 255
8057.82 -506.072 -1457.49 0 0 255
8986.9 -443.766 -1431.69 0 0 255
8963.36 -92.4013 -1432.46 0 0 255
8034.34 -154.641 -1430.26 0 0 255
8057.88 -506.006 -1429.49 0 0 255
0 1
1 2
2 3
3 0
4 5
5 6
6 7
7 4
0 4
1 5
2 6
3 7
