ply
format ascii 1.0
element vertex 8
property float x
property float y
property float z
property uchar red
property uchar green
property uchar blue
element edge 12
property int vertex1
property int vertex2
end_header
2570.57 202.768 -1459.34 0 0 255
2384.3 329.991 -1465.43 0 0 255
1859 -439.152 -1466.3 0 0 255
2045.27 -566.374 -1460.2 0 0 255
2569.93 203.173 -1431.35 0 0 255
2383.66 330.396 -1437.44 0 0 255
1858.37 -438.747 -1438.31 0 0 255
2044.64 -565.969 -1432.21 0 0 255
0 1
1 2
2 3
3 0
4 5
5 6
6 7
7 4
0 4
1 5
2 6
3 7
