ply
format ascii 1.0
element vertex 8
property float x
property float y
property float z
property uchar red
property uchar green
property uchar blue
element edge 12
property int vertex1
property int vertex2
end_header
10820.5 -181.425 -1451.85 0 0 255
10814.7 103.704 -1457.41 0 0 255
9876.45 84.5145 -1462.1 0 0 255
9882.25 -200.615 -1456.54 0 0 255
10820.4 -180.883 -1423.86 0 0 255
10814.6 104.246 -1429.41 0 0 255
9876.3 85.0567 -1434.1 0 0 255
9882.1 -200.073 -1428.55 0 0 255
0 1
1 2
2 3
3 0
4 5
5 6
6 7
7 4
0 4
1 5
2 6
3 7
