ply
format ascii 1.0
element vertex 8
property float x
property float y
property float z
property uchar red
property uchar green
property uchar blue
element edge 12
property int vertex1
property int vertex2
end_header
4287.92 313.473 -1459.64 0 0 255
4285.65 -47.2344 -1454.34 0 0 255
5216.64 -53.1155 -1456.5 0 0 255
5218.91 307.592 -1461.79 0 0 255
4287.99 313.883 -1431.64 0 0 255
4285.72 -46.824 -1426.35 0 0 255
5216.71 -52.7051 -1428.5 0 0 255
5218.98 308.002 -1433.79 0 0 255
0 1
1 2
2 3
3 0
4 5
5 6
6 7
7 4
0 4
1 5
2 6
3 7
