ply
format ascii 1.0
element vertex 8
property float x
property float y
property float z
property uchar red
property uchar green
property uchar blue
element edge 12
property int vertex1
property int vertex2
end_header
5574.44 242.353 -1455.36 0 0 255
5557.53 26.2244 -1455.36 0 0 255
6485.68 -46.3934 -1465.67 0 0 255
6502.59 169.736 -1465.67 0 0 255
5574.75 242.328 -1427.36 0 0 255
5557.84 26.1993 -1427.36 0 0 255
6485.99 -46.4184 -1437.68 0 0 255
6502.9 169.711 -1437.67 0 0 255
0 1
1 2
2 3
3 0
4 5
5 6
6 7
7 4
0 4
1 5
2 6
3 7
