ply
format ascii 1.0
element vertex 8
property float x
property float y
property float z
property uchar red
property uchar green
property uchar blue
element edge 12
property int vertex1
property int vertex2
end_header
511.311 76.6841 -1461.85 0 0 255
494.606 -167.882 -1465.78 0 0 255
1447.6 -233.088 -1458.63 0 0 255
1464.31 11.478 -1454.7 0 0 255
511.071 76.2504 -1433.85 0 0 255
494.366 -168.316 -1437.79 0 0 255
1447.36 -233.522 -1430.63 0 0 255
1464.07 11.0442 -1426.7 0 0 255
0 1
1 2
2 3
3 0
4 5
5 6
6 7
7 4
0 4
1 5
2 6
3 7
