ply
format ascii 1.0
element vertex 8
property float x
property float y
property float z
property uchar red
property uchar green
property uchar blue
element edge 12
property int vertex1
property int vertex2
end_header
11435.1 47.2871 -1446.85 0 0 255
11414.7 447.188 -1461.46 0 0 255
10490.5 399.84 -1471.06 0 0 255
10510.9 -0.0617986 -1456.45 0 0 255
11434.7 48.292 -1418.87 0 0 255
11414.4 448.193 -1433.48 0 0 255
10490.2 400.844 -1443.08 0 0 255
10510.5 0.943141 -1428.47 0 0 255
0 1
1 2
2 3
3 0
4 5
5 6
6 7
7 4
0 4
1 5
2 6
3 7
