ply
format ascii 1.0
element vertex 8
property float x
property float y
property float z
property uchar red
property uchar green
property uchar blue
element edge 12
property int vertex1
property int vertex2
end_header
5608.75 418.226 -1464.53 0 0 255
5585.78 234.351 -1466.95 0 0 255
6504.16 119.524 -1458.52 0 0 255
6527.13 303.399 -1456.11 0 0 255
5608.45 417.895 -1436.54 0 0 255
5585.48 234.02 -1438.95 0 0 255
6503.86 119.194 -1430.53 0 0 255
6526.83 303.069 -1428.11 0 0 255
0 1
1 2
2 3
3 0
4 5
5 6
6 7
7 4
0 4
1 5
2 6
3 7
