ply
format ascii 1.0
element vertex 8
property float x
property float y
property float z
property uchar red
property uchar green
property uchar blue
element edge 12
property int vertex1
property int vertex2
end_header
3795.72 269.228 -1465.55 0 0 255
3512.6 256.963 -1465.97 0 0 255
3551.94 -651.627 -1454.72 0 0 255
3835.06 -639.362 -1454.3 0 0 255
3795.66 269.572 -1437.55 0 0 255
3512.54 257.308 -1437.97 0 0 255
3551.89 -651.283 -1426.72 0 0 255
3835 -639.018 -1426.3 0 0 255
0 1
1 2
2 3
3 0
4 5
5 6
6 7
7 4
0 4
1 5
2 6
3 7
