ply
format ascii 1.0
element vertex 8
property float x
property float y
property float z
property uchar red
property uchar green
property uchar blue
element edge 12
property int vertex1
property int vertex2
end_header
130.82 234.283 -1443.96 0 0 255
-84.4608 303.694 -1458.65 0 0 255
-363.868 -567.002 -1478.05 0 0 255
-148.588 -636.413 -1463.35 0 0 255
128.91 234.274 -1416.02 0 0 255
-86.371 303.685 -1430.72 0 0 255
-365.779 -567.011 -1450.12 0 0 255
-150.498 -636.423 -1435.42 0 0 255
0 1
1 2
2 3
3 0
4 5
5 6
6 7
7 4
0 4
1 5
2 6
3 7
