ply
format ascii 1.0
element vertex 8
property float x
property float y
property float z
property uchar red
property uchar green
property uchar blue
element edge 12
property int vertex1
property int vertex2
end_header
8979.98 195.48 -1446.63 0 0 255
8920.25 509.417 -1456.92 0 0 255
8011.84 336.164 -1469.88 0 0 255
8071.57 22.2273 -1459.59 0 0 255
8979.43 196.292 -1418.65 0 0 255
8919.7 510.229 -1428.94 0 0 255
8011.29 336.976 -1441.89 0 0 255
8071.02 23.0391 -1431.6 0 0 255
0 1
1 2
2 3
3 0
4 5
5 6
6 7
7 4
0 4
1 5
2 6
3 7
