ply
format ascii 1.0
element vertex 8
property float x
property float y
property float z
property uchar red
property uchar green
property uchar blue
element edge 12
property int vertex1
property int vertex2
end_header
6505.53 -359.983 -1462.71 0 0 255
6482.32 -103.087 -1456.61 0 0 255
5568.23 -185.547 -1461.36 0 0 255
5591.43 -442.443 -1467.46 0 0 255
6505.44 -360.656 -1434.72 0 0 255
6482.24 -103.76 -1428.62 0 0 255
5568.14 -186.22 -1433.37 0 0 255
5591.35 -443.115 -1439.47 0 0 255
0 1
1 2
2 3
3 0
4 5
5 6
6 7
7 4
0 4
1 5
2 6
3 7
