ply
format ascii 1.0
element vertex 8
property float x
property float y
property float z
property uchar red
property uchar green
property uchar blue
element edge 12
property int vertex1
property int vertex2
end_header
3579.14 544.984 -1455.8 0 0 255
3466.27 202.397 -1454.78 0 0 255
4332.8 -83.0951 -1460.63 0 0 255
4445.67 259.492 -1461.65 0 0 255
3579.33 545.004 -1427.8 0 0 255
3466.47 202.417 -1426.78 0 0 255
4333 -83.0758 -1432.63 0 0 255
4445.86 259.511 -1433.65 0 0 255
0 1
1 2
2 3
3 0
4 5
5 6
6 7
7 4
0 4
1 5
2 6
3 7
