ply
format ascii 1.0
element vertex 8
property float x
property float y
property float z
property uchar red
property uchar green
property uchar blue
element edge 12
property int vertex1
property int vertex2
end_header
7208.79 527.705 -1464.81 0 0 255
7136.57 185.726 -1462.74 0 0 255
8025.05 -1.7904 -1442.08 0 0 255
8097.27 340.188 -1444.15 0 0 255
7208.2 527.998 -1436.81 0 0 255
7135.98 186.02 -1434.74 0 0 255
8024.46 -1.49661 -1414.09 0 0 255
8096.69 340.482 -1416.16 0 0 255
0 1
1 2
2 3
3 0
4 5
5 6
6 7
7 4
0 4
1 5
2 6
3 7
