ply
format ascii 1.0
element vertex 8
property float x
property float y
property float z
property uchar red
property uchar green
property uchar blue
element edge 12
property int vertex1
property int vertex2
end_header
1434.4 45.7366 -1455.4 0 0 255
1404.42 279.296 -1449.72 0 0 255
485.587 161.634 -1460.62 0 0 255
515.563 -71.9254 -1466.31 0 0 255
1434.16 45.0247 -1427.41 0 0 255
1404.18 278.584 -1421.73 0 0 255
485.346 160.922 -1432.63 0 0 255
515.322 -72.6373 -1438.32 0 0 255
0 1
1 2
2 3
3 0
4 5
5 6
6 7
7 4
0 4
1 5
2 6
3 7
