ply
format ascii 1.0
element vertex 8
property float x
property float y
property float z
property uchar red
property uchar green
property uchar blue
element edge 12
property int vertex1
property int vertex2
end_header
2847.6 251.366 -1457.48 0 0 255
2568.25 409.685 -1462.61 0 0 255
2114.17 -391.413 -1459.47 0 0 255
2393.52 -549.732 -1454.35 0 0 255
2847.26 251.669 -1429.48 0 0 255
2567.91 409.989 -1434.61 0 0 255
2113.83 -391.11 -1431.48 0 0 255
2393.18 -549.429 -1426.35 0 0 255
0 1
1 2
2 3
3 0
4 5
5 6
6 7
7 4
0 4
1 5
2 6
3 7
