ply
format ascii 1.0
element vertex 8
property float x
property float y
property float z
property uchar red
property uchar green
property uchar blue
element edge 12
property int vertex1
property int vertex2
end_header
8978.6 194.852 -1446.99 0 0 255
8918.1 510.074 -1456.49 0 0 255
8011.43 335.647 -1469.73 0 0 255
8071.93 20.4262 -1460.23 0 0 255
8978.05 195.59 -1419 0 0 255
8917.55 510.811 -1428.5 0 0 255
8010.88 336.385 -1441.74 0 0 255
8071.38 21.1638 -1432.25 0 0 255
0 1
1 2
2 3
3 0
4 5
5 6
6 7
7 4
0 4
1 5
2 6
3 7
