ply
format ascii 1.0
element vertex 8
property float x
property float y
property float z
property uchar red
property uchar green
property uchar blue
element edge 12
property int vertex1
property int vertex2
end_header
11435.2 47.3531 -1446.9 0 0 255
11414.9 447.253 -1461.54 0 0 255
10490.7 399.927 -1471.04 0 0 255
10511 0.0262399 -1456.4 0 0 255
11434.9 48.3602 -1418.92 0 0 255
11414.6 448.261 -1433.56 0 0 255
10490.4 400.934 -1443.06 0 0 255
10510.7 1.03339 -1428.42 0 0 255
0 1
1 2
2 3
3 0
4 5
5 6
6 7
7 4
0 4
1 5
2 6
3 7
