ply
format ascii 1.0
element vertex 8
property float x
property float y
property float z
property uchar red
property uchar green
property uchar blue
element edge 12
property int vertex1
property int vertex2
end_header
11933.7 133.606 -1444.57 0 0 255
11929.8 454.143 -1463.62 0 0 255
11023.1 442.782 -1471.15 0 0 255
11026.9 122.245 -1452.1 0 0 255
11933.5 135.264 -1416.62 0 0 255
11929.6 455.802 -1435.67 0 0 255
11022.8 444.441 -1443.2 0 0 255
11026.7 123.903 -1424.15 0 0 255
0 1
1 2
2 3
3 0
4 5
5 6
6 7
7 4
0 4
1 5
2 6
3 7
