ply
format ascii 1.0
element vertex 8
property float x
property float y
property float z
property uchar red
property uchar green
property uchar blue
element edge 12
property int vertex1
property int vertex2
end_header
1433.21 46.5329 -1455.68 0 0 255
1403.37 278.121 -1449.17 0 0 255
487.203 160.373 -1460.03 0 0 255
517.045 -71.2146 -1466.54 0 0 255
1432.98 45.7168 -1427.69 0 0 255
1403.14 277.305 -1421.18 0 0 255
486.977 159.557 -1432.04 0 0 255
516.818 -72.0307 -1438.55 0 0 255
0 1
1 2
2 3
3 0
4 5
5 6
6 7
7 4
0 4
1 5
2 6
3 7
