ply
format ascii 1.0
element vertex 8
property float x
property float y
property float z
property uchar red
property uchar green
property uchar blue
element edge 12
property int vertex1
property int vertex2
end_header
7678.57 -233.21 -1463.99 0 0 255
7681.49 56.8466 -1462.85 0 0 255
6770.28 65.9684 -1450.97 0 0 255
6767.36 -224.088 -1452.11 0 0 255
7678.94 -233.324 -1435.99 0 0 255
7681.85 56.7326 -1434.85 0 0 255
6770.64 65.8544 -1422.97 0 0 255
6767.72 -224.202 -1424.11 0 0 255
0 1
1 2
2 3
3 0
4 5
5 6
6 7
7 4
0 4
1 5
2 6
3 7
