ply
format ascii 1.0
element vertex 8
property float x
property float y
property float z
property uchar red
property uchar green
property uchar blue
element edge 12
property int vertex1
property int vertex2
end_header
4254.72 277.123 -1456.47 0 0 255
3948.06 302.396 -1459.34 0 0 255
3872.91 -609.51 -1459.61 0 0 255
4179.57 -634.783 -1456.75 0 0 255
4254.46 277.137 -1428.47 0 0 255
3947.8 302.41 -1431.34 0 0 255
3872.65 -609.497 -1431.61 0 0 255
4179.31 -634.77 -1428.75 0 0 255
0 1
1 2
2 3
3 0
4 5
5 6
6 7
7 4
0 4
1 5
2 6
3 7
