ply
format ascii 1.0
element vertex 8
property float x
property float y
property float z
property uchar red
property uchar green
property uchar blue
element edge 12
property int vertex1
property int vertex2
end_header
11467.4 -97.911 -1454.07 0 0 255
11448.1 186.523 -1459.96 0 0 255
10511.4 122.756 -1467.79 0 0 255
10530.7 -161.677 -1461.9 0 0 255
11467.2 -97.3503 -1426.08 0 0 255
11447.9 187.084 -1431.97 0 0 255
10511.1 123.317 -1439.8 0 0 255
10530.4 -161.117 -1433.91 0 0 255
0 1
1 2
2 3
3 0
4 5
5 6
6 7
7 4
0 4
1 5
2 6
3 7
