ply
format ascii 1.0
element vertex 8
property float x
property float y
property float z
property uchar red
property uchar green
property uchar blue
element edge 12
property int vertex1
property int vertex2
end_header
6504.93 -188.316 -1463.49 0 0 255
6484.98 90.0707 -1461.33 0 0 255
5559.1 23.689 -1457.65 0 0 255
5579.05 -254.697 -1459.82 0 0 255
6505.06 -188.524 -1435.49 0 0 255
6485.11 89.862 -1433.33 0 0 255
5559.23 23.4803 -1429.65 0 0 255
5579.18 -254.906 -1431.82 0 0 255
0 1
1 2
2 3
3 0
4 5
5 6
6 7
7 4
0 4
1 5
2 6
3 7
