ply
format ascii 1.0
element vertex 8
property float x
property float y
property float z
property uchar red
property uchar green
property uchar blue
element edge 12
property int vertex1
property int vertex2
end_header
6970.88 -162.586 -1455.72 0 0 255
6868.42 145.98 -1450.76 0 0 255
6188.68 -79.6625 -1454.24 0 0 255
6291.14 -388.229 -1459.21 0 0 255
6970.88 -163.034 -1427.72 0 0 255
6868.42 145.532 -1422.76 0 0 255
6188.69 -80.111 -1426.25 0 0 255
6291.14 -388.677 -1431.21 0 0 255
0 1
1 2
2 3
3 0
4 5
5 6
6 7
7 4
0 4
1 5
2 6
3 7
