ply
format ascii 1.0
element vertex 8
property float x
property float y
property float z
property uchar red
property uchar green
property uchar blue
element edge 12
property int vertex1
property int vertex2
end_header
10275.7 -457.16 -1463.03 0 0 255
10258 -100.011 -1463.5 0 0 255
9349.57 -144.866 -1455.05 0 0 255
9367.2 -502.014 -1454.58 0 0 255
10275.9 -457.111 -1435.03 0 0 255
10258.3 -99.9622 -1435.5 0 0 255
9349.82 -144.816 -1427.05 0 0 255
9367.46 -501.965 -1426.58 0 0 255
0 1
1 2
2 3
3 0
4 5
5 6
6 7
7 4
0 4
1 5
2 6
3 7
