ply
format ascii 1.0
element vertex 8
property float x
property float y
property float z
property uchar red
property uchar green
property uchar blue
element edge 12
property int vertex1
property int vertex2
end_header
2924.39 346.976 -1451.33 0 0 255
2837.52 549.85 -1448.52 0 0 255
1992.56 188.326 -1470.24 0 0 255
2079.44 -14.5476 -1473.05 0 0 255
2923.93 346.388 -1423.34 0 0 255
2837.05 549.262 -1420.53 0 0 255
1992.1 187.738 -1442.25 0 0 255
2078.97 -15.1362 -1445.06 0 0 255
0 1
1 2
2 3
3 0
4 5
5 6
6 7
7 4
0 4
1 5
2 6
3 7
