ply
format ascii 1.0
element vertex 8
property float x
property float y
property float z
property uchar red
property uchar green
property uchar blue
element edge 12
property int vertex1
property int vertex2
end_header
12005.4 -199.552 -1456.1 0 0 255
11976 134.307 -1452.8 0 0 255
11045.3 52.4065 -1457.61 0 0 255
11074.7 -281.453 -1460.91 0 0 255
12005.3 -199.839 -1428.11 0 0 255
11975.9 134.02 -1424.8 0 0 255
11045.2 52.1189 -1429.61 0 0 255
11074.6 -281.74 -1432.91 0 0 255
0 1
1 2
2 3
3 0
4 5
5 6
6 7
7 4
0 4
1 5
2 6
3 7
