ply
format ascii 1.0
element vertex 8
property float x
property float y
property float z
property uchar red
property uchar green
property uchar blue
element edge 12
property int vertex1
property int vertex2
end_header
12005.3 -198.701 -1456.03 0 0 255
11976 133.471 -1452.82 0 0 255
11045.4 51.5855 -1457.68 0 0 255
11074.6 -280.586 -1460.89 0 0 255
12005.2 -198.982 -1428.03 0 0 255
11975.9 133.19 -1424.82 0 0 255
11045.2 51.3043 -1429.68 0 0 255
11074.5 -280.867 -1432.89 0 0 255
0 1
1 2
2 3
3 0
4 5
5 6
6 7
7 4
0 4
1 5
2 6
3 7
