ply
format ascii 1.0
element vertex 8
property float x
property float y
property float z
property uchar red
property uchar green
property uchar blue
element edge 12
property int vertex1
property int vertex2
end_header
11995.6 -378.464 -1455.02 0 0 255
11926.5 -18.515 -1445.82 0 0 255
11032 -190.112 -1457.74 0 0 255
11101.2 -550.062 -1466.94 0 0 255
11995.4 -379.224 -1427.03 0 0 255
11926.2 -19.2742 -1417.83 0 0 255
11031.8 -190.871 -1429.75 0 0 255
11101 -550.821 -1438.96 0 0 255
0 1
1 2
2 3
3 0
4 5
5 6
6 7
7 4
0 4
1 5
2 6
3 7
