ply
format ascii 1.0
element vertex 8
property float x
property float y
property float z
property uchar red
property uchar green
property uchar blue
element edge 12
property int vertex1
property int vertex2
end_header
9588.34 -68.6826 -1440.37 0 0 255
9505.23 244.444 -1441.75 0 0 255
8602.83 4.81186 -1469.67 0 0 255
8685.93 -308.315 -1468.3 0 0 255
9587.5 -68.7826 -1412.38 0 0 255
9504.39 244.344 -1413.76 0 0 255
8601.99 4.71188 -1441.68 0 0 255
8685.1 -308.415 -1440.31 0 0 255
0 1
1 2
2 3
3 0
4 5
5 6
6 7
7 4
0 4
1 5
2 6
3 7
