ply
format ascii 1.0
element vertex 8
property float x
property float y
property float z
property uchar red
property uchar green
property uchar blue
element edge 12
property int vertex1
property int vertex2
end_header
8077.01 469.149 -1459.78 0 0 255
7710.3 407.972 -1460.25 0 0 255
7867.46 -534.174 -1448.44 0 0 255
8234.17 -472.997 -1447.97 0 0 255
8076.91 469.485 -1431.78 0 0 255
7710.21 408.308 -1432.25 0 0 255
7867.37 -533.839 -1420.44 0 0 255
8234.08 -472.661 -1419.97 0 0 255
0 1
1 2
2 3
3 0
4 5
5 6
6 7
7 4
0 4
1 5
2 6
3 7
