ply
format ascii 1.0
element vertex 8
property float x
property float y
property float z
property uchar red
property uchar green
property uchar blue
element edge 12
property int vertex1
property int vertex2
end_header
5185.97 -328.705 -1464.21 0 0 255
5144.29 -79.4482 -1462.79 0 0 255
4253.32 -228.456 -1458.39 0 0 255
4295 -477.713 -1459.81 0 0 255
5186.13 -328.838 -1436.21 0 0 255
5144.45 -79.5808 -1434.79 0 0 255
4253.48 -228.589 -1430.39 0 0 255
4295.16 -477.846 -1431.81 0 0 255
0 1
1 2
2 3
3 0
4 5
5 6
6 7
7 4
0 4
1 5
2 6
3 7
