ply
format ascii 1.0
element vertex 8
property float x
property float y
property float z
property uchar red
property uchar green
property uchar blue
element edge 12
property int vertex1
property int vertex2
end_header
9375.22 149.854 -1458.69 0 0 255
9348 -176.896 -1460.88 0 0 255
10260.3 -252.861 -1463.75 0 0 255
10287.5 73.8885 -1461.56 0 0 255
9375.29 149.661 -1430.7 0 0 255
9348.08 -177.089 -1432.88 0 0 255
10260.4 -253.054 -1435.75 0 0 255
10287.6 73.6953 -1433.56 0 0 255
0 1
1 2
2 3
3 0
4 5
5 6
6 7
7 4
0 4
1 5
2 6
3 7
