ply
format ascii 1.0
element vertex 8
property float x
property float y
property float z
property uchar red
property uchar green
property uchar blue
element edge 12
property int vertex1
property int vertex2
end_header
7032.05 98.1248 -1470.79 0 0 255
6932.36 347.779 -1453.59 0 0 255
6070.77 2.95052 -1442 0 0 255
6170.46 -246.704 -1459.2 0 0 255
7033.04 96.5947 -1442.85 0 0 255
6933.35 346.249 -1425.65 0 0 255
6071.76 1.42047 -1414.06 0 0 255
6171.44 -248.234 -1431.26 0 0 255
0 1
1 2
2 3
3 0
4 5
5 6
6 7
7 4
0 4
1 5
2 6
3 7
