ply
format ascii 1.0
element vertex 8
property float x
property float y
property float z
property uchar red
property uchar green
property uchar blue
element edge 12
property int vertex1
property int vertex2
end_header
7678.26 -233.547 -1463.89 0 0 255
7681.46 56.3423 -1462.87 0 0 255
6770.25 66.3609 -1451.11 0 0 255
6767.05 -223.529 -1452.13 0 0 255
7678.62 -233.649 -1435.89 0 0 255
7681.82 56.2403 -1434.87 0 0 255
6770.61 66.2589 -1423.11 0 0 255
6767.41 -223.631 -1424.13 0 0 255
0 1
1 2
2 3
3 0
4 5
5 6
6 7
7 4
0 4
1 5
2 6
3 7
