ply
format ascii 1.0
element vertex 8
property float x
property float y
property float z
property uchar red
property uchar green
property uchar blue
element edge 12
property int vertex1
property int vertex2
end_header
481.984 51.6353 -1464.52 0 0 255
477.246 -194.189 -1469.82 0 0 255
1428.85 -212.798 -1457.5 0 0 255
1433.59 33.026 -1452.2 0 0 255
481.61 51.039 -1436.53 0 0 255
476.871 -194.785 -1441.83 0 0 255
1428.48 -213.395 -1429.51 0 0 255
1433.22 32.4297 -1424.21 0 0 255
0 1
1 2
2 3
3 0
4 5
5 6
6 7
7 4
0 4
1 5
2 6
3 7
