ply
format ascii 1.0
element vertex 8
property float x
property float y
property float z
property uchar red
property uchar green
property uchar blue
element edge 12
property int vertex1
property int vertex2
end_header
6775.69 473.867 -1442.04 0 0 255
6691.78 93.3768 -1462.1 0 0 255
7615.4 -109.977 -1468.36 0 0 255
7699.31 270.513 -1448.3 0 0 255
6775.56 472.422 -1414.08 0 0 255
6691.65 91.9312 -1434.14 0 0 255
7615.28 -111.423 -1440.4 0 0 255
7699.18 269.068 -1420.34 0 0 255
0 1
1 2
2 3
3 0
4 5
5 6
6 7
7 4
0 4
1 5
2 6
3 7
