ply
format ascii 1.0
element vertex 8
property float x
property float y
property float z
property uchar red
property uchar green
property uchar blue
element edge 12
property int vertex1
property int vertex2
end_header
6996.53 299.185 -1461.39 0 0 255
6891.38 526.374 -1460.19 0 0 255
6047.49 135.761 -1456.69 0 0 255
6152.64 -91.4285 -1457.9 0 0 255
6996.69 299.107 -1433.39 0 0 255
6891.53 526.296 -1432.19 0 0 255
6047.64 135.683 -1428.69 0 0 255
6152.79 -91.5064 -1429.9 0 0 255
0 1
1 2
2 3
3 0
4 5
5 6
6 7
7 4
0 4
1 5
2 6
3 7
