ply
format ascii 1.0
element vertex 8
property float x
property float y
property float z
property uchar red
property uchar green
property uchar blue
element edge 12
property int vertex1
property int vertex2
end_header
206.638 381.372 -1457.9 0 0 255
4.83901 394.574 -1458.77 0 0 255
-54.0398 -505.923 -1465.79 0 0 255
147.759 -519.125 -1464.91 0 0 255
206.503 381.163 -1429.9 0 0 255
4.70398 394.364 -1430.77 0 0 255
-54.1749 -506.133 -1437.79 0 0 255
147.624 -519.334 -1436.91 0 0 255
0 1
1 2
2 3
3 0
4 5
5 6
6 7
7 4
0 4
1 5
2 6
3 7
