ply
format ascii 1.0
element vertex 8
property float x
property float y
property float z
property uchar red
property uchar green
property uchar blue
element edge 12
property int vertex1
property int vertex2
end_header
8972.31 -146.682 -1457.7 0 0 255
8950.35 28.3856 -1453.28 0 0 255
8040.31 -85.5481 -1461.5 0 0 255
8062.27 -260.615 -1465.91 0 0 255
8972.14 -147.408 -1429.71 0 0 255
8950.19 27.6591 -1425.29 0 0 255
8040.15 -86.2746 -1433.51 0 0 255
8062.1 -261.342 -1437.92 0 0 255
0 1
1 2
2 3
3 0
4 5
5 6
6 7
7 4
0 4
1 5
2 6
3 7
