ply
format ascii 1.0
element vertex 8
property float x
property float y
property float z
property uchar red
property uchar green
property uchar blue
element edge 12
property int vertex1
property int vertex2
end_header
9917.36 454.908 -1451.19 0 0 255
9866.88 63.6937 -1455.64 0 0 255
10797.7 -56.3333 -1463.06 0 0 255
10848.1 334.881 -1458.6 0 0 255
9917.54 454.566 -1423.19 0 0 255
9867.05 63.3515 -1427.65 0 0 255
10797.8 -56.6755 -1435.06 0 0 255
10848.3 334.539 -1430.6 0 0 255
0 1
1 2
2 3
3 0
4 5
5 6
6 7
7 4
0 4
1 5
2 6
3 7
