ply
format ascii 1.0
element vertex 8
property float x
property float y
property float z
property uchar red
property uchar green
property uchar blue
element edge 12
property int vertex1
property int vertex2
end_header
130.51 234.241 -1443.97 0 0 255
-84.7935 303.526 -1458.69 0 0 255
-363.7 -567.303 -1478.06 0 0 255
-148.396 -636.587 -1463.34 0 0 255
128.596 234.233 -1416.03 0 0 255
-86.7069 303.517 -1430.76 0 0 255
-365.613 -567.311 -1450.13 0 0 255
-150.31 -636.595 -1435.4 0 0 255
0 1
1 2
2 3
3 0
4 5
5 6
6 7
7 4
0 4
1 5
2 6
3 7
