ply
format ascii 1.0
element vertex 8
property float x
property float y
property float z
property uchar red
property uchar green
property uchar blue
element edge 12
property int vertex1
property int vertex2
end_header
8974.51 -147.822 -1457.83 0 0 255
8952.3 29.481 -1453.16 0 0 255
8037.12 -84.9143 -1461.56 0 0 255
8059.32 -262.217 -1466.22 0 0 255
8974.34 -148.579 -1429.84 0 0 255
8952.14 28.7241 -1425.17 0 0 255
8036.96 -85.6712 -1433.57 0 0 255
8059.16 -262.974 -1438.23 0 0 255
0 1
1 2
2 3
3 0
4 5
5 6
6 7
7 4
0 4
1 5
2 6
3 7
