ply
format ascii 1.0
element vertex 8
property float x
property float y
property float z
property uchar red
property uchar green
property uchar blue
element edge 12
property int vertex1
property int vertex2
end_header
5777.09 -75.4785 -1454.43 0 0 255
5745.25 278.305 -1450.51 0 0 255
4816.43 194.795 -1457.35 0 0 255
4848.26 -158.988 -1461.27 0 0 255
5776.91 -75.8044 -1426.43 0 0 255
5745.07 277.979 -1422.51 0 0 255
4816.25 194.469 -1429.35 0 0 255
4848.09 -159.314 -1433.27 0 0 255
0 1
1 2
2 3
3 0
4 5
5 6
6 7
7 4
0 4
1 5
2 6
3 7
