ply
format ascii 1.0
element vertex 8
property float x
property float y
property float z
property uchar red
property uchar green
property uchar blue
element edge 12
property int vertex1
property int vertex2
end_header
499.777 435.729 -1460.49 0 0 255
482.429 185.379 -1468.38 0 0 255
1422.25 119.949 -1458.72 0 0 255
1439.59 370.299 -1450.84 0 0 255
499.43 434.872 -1432.5 0 0 255
482.082 184.522 -1440.39 0 0 255
1421.9 119.091 -1430.74 0 0 255
1439.25 369.441 -1422.85 0 0 255
0 1
1 2
2 3
3 0
4 5
5 6
6 7
7 4
0 4
1 5
2 6
3 7
