ply
format ascii 1.0
element vertex 8
property float x
property float y
property float z
property uchar red
property uchar green
property uchar blue
element edge 12
property int vertex1
property int vertex2
end_header
-334.535 383.302 -1465.16 0 0 255
-516.136 350.196 -1465.74 0 0 255
-350.44 -558.764 -1462.8 0 0 255
-168.839 -525.658 -1462.23 0 0 255
-334.636 383.374 -1437.16 0 0 255
-516.238 350.268 -1437.74 0 0 255
-350.542 -558.692 -1434.8 0 0 255
-168.94 -525.586 -1434.23 0 0 255
0 1
1 2
2 3
3 0
4 5
5 6
6 7
7 4
0 4
1 5
2 6
3 7
