ply
format ascii 1.0
element vertex 8
property float x
property float y
property float z
property uchar red
property uchar green
property uchar blue
element edge 12
property int vertex1
property int vertex2
end_header
9540.8 229.47 -1464.09 0 0 255
9356.7 609.846 -1443.5 0 0 255
8504.79 197.525 -1443.39 0 0 255
8688.89 -182.851 -1463.98 0 0 255
9541.39 228.245 -1436.12 0 0 255
9357.29 608.621 -1415.53 0 0 255
8505.39 196.3 -1415.43 0 0 255
8689.49 -184.076 -1436.02 0 0 255
0 1
1 2
2 3
3 0
4 5
5 6
6 7
7 4
0 4
1 5
2 6
3 7
