ply
format ascii 1.0
element vertex 8
property float x
property float y
property float z
property uchar red
property uchar green
property uchar blue
element edge 12
property int vertex1
property int vertex2
end_header
8994.32 13.1999 -1462.08 0 0 255
8957.58 248.368 -1452.58 0 0 255
8038.95 104.853 -1453.31 0 0 255
8075.7 -130.315 -1462.81 0 0 255
8994.47 12.0932 -1434.1 0 0 255
8957.73 247.261 -1424.6 0 0 255
8039.1 103.746 -1425.33 0 0 255
8075.85 -131.422 -1434.83 0 0 255
0 1
1 2
2 3
3 0
4 5
5 6
6 7
7 4
0 4
1 5
2 6
3 7
