ply
format ascii 1.0
element vertex 8
property float x
property float y
property float z
property uchar red
property uchar green
property uchar blue
element edge 12
property int vertex1
property int vertex2
end_header
571.362 343.286 -1464.94 0 0 255
168.574 406.796 -1464.79 0 0 255
24.2658 -508.46 -1450.23 0 0 255
427.054 -571.97 -1450.38 0 0 255
571.441 343.719 -1436.94 0 0 255
168.652 407.229 -1436.79 0 0 255
24.3444 -508.027 -1422.23 0 0 255
427.133 -571.537 -1422.38 0 0 255
0 1
1 2
2 3
3 0
4 5
5 6
6 7
7 4
0 4
1 5
2 6
3 7
