ply
format ascii 1.0
element vertex 8
property float x
property float y
property float z
property uchar red
property uchar green
property uchar blue
element edge 12
property int vertex1
property int vertex2
end_header
2847.58 250.561 -1457.49 0 0 255
2568.12 409.222 -1462.78 0 0 255
2114.46 -389.738 -1459.44 0 0 255
2393.92 -548.398 -1454.15 0 0 255
2847.23 250.877 -1429.5 0 0 255
2567.77 409.538 -1434.79 0 0 255
2114.11 -389.421 -1431.44 0 0 255
2393.56 -548.082 -1426.15 0 0 255
0 1
1 2
2 3
3 0
4 5
5 6
6 7
7 4
0 4
1 5
2 6
3 7
