ply
format ascii 1.0
element vertex 8
property float x
property float y
property float z
property uchar red
property uchar green
property uchar blue
element edge 12
property int vertex1
property int vertex2
end_header
3215.9 -180.818 -1450.12 0 0 255
3038.29 130.023 -1451.77 0 0 255
2247.04 -322.159 -1465.64 0 0 255
2424.65 -633 -1463.99 0 0 255
3215.47 -180.918 -1422.13 0 0 255
3037.86 129.924 -1423.78 0 0 255
2246.61 -322.258 -1437.65 0 0 255
2424.22 -633.099 -1436 0 0 255
0 1
1 2
2 3
3 0
4 5
5 6
6 7
7 4
0 4
1 5
2 6
3 7
