ply
format ascii 1.0
element vertex 8
property float x
property float y
property float z
property uchar red
property uchar green
property uchar blue
element edge 12
property int vertex1
property int vertex2
end_header
5223.94 -177.276 -1464.58 0 0 255
5219.64 61.2814 -1460.63 0 0 255
4305.58 44.7842 -1457.7 0 0 255
4309.87 -193.773 -1461.65 0 0 255
5224.03 -177.737 -1436.59 0 0 255
5219.74 60.8197 -1432.64 0 0 255
4305.67 44.3224 -1429.71 0 0 255
4309.97 -194.235 -1433.65 0 0 255
0 1
1 2
2 3
3 0
4 5
5 6
6 7
7 4
0 4
1 5
2 6
3 7
