ply
format ascii 1.0
element vertex 8
property float x
property float y
property float z
property uchar red
property uchar green
property uchar blue
element edge 12
property int vertex1
property int vertex2
end_header
8978.59 194.968 -1446.89 0 0 255
8918.25 509.871 -1456.56 0 0 255
8011.52 335.729 -1469.79 0 0 255
8071.86 20.8267 -1460.11 0 0 255
8978.03 195.722 -1418.9 0 0 255
8917.7 510.625 -1428.58 0 0 255
8010.97 336.483 -1441.8 0 0 255
8071.31 21.5806 -1432.13 0 0 255
0 1
1 2
2 3
3 0
4 5
5 6
6 7
7 4
0 4
1 5
2 6
3 7
