ply
format ascii 1.0
element vertex 8
property float x
property float y
property float z
property uchar red
property uchar green
property uchar blue
element edge 12
property int vertex1
property int vertex2
end_header
7715.88 312.603 -1450.55 0 0 255
7405.78 305.874 -1452.55 0 0 255
7425.11 -582.825 -1460.35 0 0 255
7735.22 -576.095 -1458.34 0 0 255
7715.7 312.354 -1422.55 0 0 255
7405.6 305.624 -1424.56 0 0 255
7424.94 -583.074 -1432.35 0 0 255
7735.04 -576.344 -1430.34 0 0 255
0 1
1 2
2 3
3 0
4 5
5 6
6 7
7 4
0 4
1 5
2 6
3 7
