ply
format ascii 1.0
element vertex 8
property float x
property float y
property float z
property uchar red
property uchar green
property uchar blue
element edge 12
property int vertex1
property int vertex2
end_header
7893.94 330.612 -1451.65 0 0 255
7589.95 311.064 -1456.23 0 0 255
7649.17 -608.85 -1460.18 0 0 255
7953.16 -589.302 -1455.59 0 0 255
7893.53 330.465 -1423.65 0 0 255
7589.54 310.917 -1428.24 0 0 255
7648.75 -608.997 -1432.18 0 0 255
7952.74 -589.449 -1427.59 0 0 255
0 1
1 2
2 3
3 0
4 5
5 6
6 7
7 4
0 4
1 5
2 6
3 7
