ply
format ascii 1.0
element vertex 8
property float x
property float y
property float z
property uchar red
property uchar green
property uchar blue
element edge 12
property int vertex1
property int vertex2
end_header
10820.2 -181.926 -1451.92 0 0 255
10814.5 103.432 -1457.2 0 0 255
9876.21 84.6983 -1462 0 0 255
9881.88 -200.66 -1456.72 0 0 255
10820.1 -181.411 -1423.93 0 0 255
10814.4 103.947 -1429.21 0 0 255
9876.06 85.2129 -1434 0 0 255
9881.73 -200.145 -1428.73 0 0 255
0 1
1 2
2 3
3 0
4 5
5 6
6 7
7 4
0 4
1 5
2 6
3 7
