ply
format ascii 1.0
element vertex 8
property float x
property float y
property float z
property uchar red
property uchar green
property uchar blue
element edge 12
property int vertex1
property int vertex2
end_header
9355.29 441.849 -1467.83 0 0 255
9335.16 27.2316 -1450.22 0 0 255
10266.5 -17.8294 -1446.37 0 0 255
10286.6 396.788 -1463.99 0 0 255
9355.23 443.04 -1439.86 0 0 255
9335.1 28.4231 -1422.24 0 0 255
10266.5 -16.6379 -1418.39 0 0 255
10286.6 397.979 -1436.01 0 0 255
0 1
1 2
2 3
3 0
4 5
5 6
6 7
7 4
0 4
1 5
2 6
3 7
