ply
format ascii 1.0
element vertex 8
property float x
property float y
property float z
property uchar red
property uchar green
property uchar blue
element edge 12
property int vertex1
property int vertex2
end_header
11438.8 47.61 -1446.92 0 0 255
11418.4 447.507 -1461.48 0 0 255
10487 399.662 -1471.06 0 0 255
10507.4 -0.234142 -1456.5 0 0 255
11438.5 48.6117 -1418.94 0 0 255
11418.1 448.508 -1433.5 0 0 255
10486.7 400.664 -1443.08 0 0 255
10507.1 0.767546 -1428.52 0 0 255
0 1
1 2
2 3
3 0
4 5
5 6
6 7
7 4
0 4
1 5
2 6
3 7
