ply
format ascii 1.0
element vertex 8
property float x
property float y
property float z
property uchar red
property uchar green
property uchar blue
element edge 12
property int vertex1
property int vertex2
end_header
3579.32 544.825 -1455.84 0 0 255
3466.68 201.881 -1454.57 0 0 255
4334.24 -83.0813 -1460.71 0 0 255
4446.88 259.863 -1461.98 0 0 255
3579.53 544.86 -1427.84 0 0 255
3466.89 201.915 -1426.57 0 0 255
4334.45 -83.0468 -1432.71 0 0 255
4447.09 259.898 -1433.98 0 0 255
0 1
1 2
2 3
3 0
4 5
5 6
6 7
7 4
0 4
1 5
2 6
3 7
