ply
format ascii 1.0
element vertex 8
property float x
property float y
property float z
property uchar red
property uchar green
property uchar blue
element edge 12
property int vertex1
property int vertex2
end_header
397.283 384.092 -1449.88 0 0 255
194.481 640.764 -1455.26 0 0 255
-528.165 69.4623 -1470.85 0 0 255
-325.364 -187.21 -1465.47 0 0 255
396.625 384.159 -1421.88 0 0 255
193.824 640.832 -1427.27 0 0 255
-528.823 69.5299 -1442.86 0 0 255
-326.021 -187.143 -1437.48 0 0 255
0 1
1 2
2 3
3 0
4 5
5 6
6 7
7 4
0 4
1 5
2 6
3 7
