ply
format ascii 1.0
element vertex 8
property float x
property float y
property float z
property uchar red
property uchar green
property uchar blue
element edge 12
property int vertex1
property int vertex2
end_header
1969.99 81.7632 -1431.16 0 0 255
1948.11 301.439 -1445.55 0 0 255
1029.84 207.864 -1477.66 0 0 255
1051.73 -11.8116 -1463.27 0 0 255
1968.84 83.4777 -1403.24 0 0 255
1946.96 303.153 -1417.63 0 0 255
1028.69 209.578 -1449.74 0 0 255
1050.57 -10.0971 -1435.35 0 0 255
0 1
1 2
2 3
3 0
4 5
5 6
6 7
7 4
0 4
1 5
2 6
3 7
