ply
format ascii 1.0
element vertex 8
property float x
property float y
property float z
property uchar red
property uchar green
property uchar blue
element edge 12
property int vertex1
property int vertex2
end_header
1722.38 341.042 -1442.39 0 0 255
1352.99 293.702 -1448.57 0 0 255
1476.59 -668.613 -1464.89 0 0 255
1845.99 -621.272 -1458.71 0 0 255
1721.98 340.516 -1414.4 0 0 255
1352.59 293.175 -1420.58 0 0 255
1476.19 -669.139 -1436.9 0 0 255
1845.58 -621.798 -1430.72 0 0 255
0 1
1 2
2 3
3 0
4 5
5 6
6 7
7 4
0 4
1 5
2 6
3 7
