ply
format ascii 1.0
element vertex 8
property float x
property float y
property float z
property uchar red
property uchar green
property uchar blue
element edge 12
property int vertex1
property int vertex2
end_header
9887.18 -47.5703 -1452.58 0 0 255
9884.82 -500.201 -1455.36 0 0 255
10846.8 -505.188 -1458.74 0 0 255
10849.2 -52.5568 -1455.96 0 0 255
9887.28 -47.7425 -1424.58 0 0 255
9884.92 -500.373 -1427.36 0 0 255
10846.9 -505.36 -1430.74 0 0 255
10849.3 -52.7289 -1427.97 0 0 255
0 1
1 2
2 3
3 0
4 5
5 6
6 7
7 4
0 4
1 5
2 6
3 7
