ply
format ascii 1.0
element vertex 8
property float x
property float y
property float z
property uchar red
property uchar green
property uchar blue
element edge 12
property int vertex1
property int vertex2
end_header
8989.6 22.8416 -1461.65 0 0 255
8950.67 248.793 -1450.21 0 0 255
8030.46 90.4786 -1454.52 0 0 255
8069.39 -135.473 -1465.95 0 0 255
8989.71 21.4452 -1433.68 0 0 255
8950.78 247.397 -1422.25 0 0 255
8030.57 89.0821 -1426.55 0 0 255
8069.5 -136.869 -1437.99 0 0 255
0 1
1 2
2 3
3 0
4 5
5 6
6 7
7 4
0 4
1 5
2 6
3 7
