ply
format ascii 1.0
element vertex 8
property float x
property float y
property float z
property uchar red
property uchar green
property uchar blue
element edge 12
property int vertex1
property int vertex2
end_header
3699.84 252.195 -1454.23 0 0 255
3306.66 336.316 -1466.88 0 0 255
3111.11 -577.548 -1466.15 0 0 255
3504.29 -661.668 -1453.5 0 0 255
3698.98 252.401 -1426.24 0 0 255
3305.8 336.522 -1438.89 0 0 255
3110.26 -577.342 -1438.17 0 0 255
3503.43 -661.463 -1425.52 0 0 255
0 1
1 2
2 3
3 0
4 5
5 6
6 7
7 4
0 4
1 5
2 6
3 7
