ply
format ascii 1.0
element vertex 8
property float x
property float y
property float z
property uchar red
property uchar green
property uchar blue
element edge 12
property int vertex1
property int vertex2
end_header
-335.561 382.022 -1464.9 0 0 255
-514.441 349.618 -1465.98 0 0 255
-350.589 -555 -1462.76 0 0 255
-171.709 -522.596 -1461.67 0 0 255
-335.743 382.089 -1436.9 0 0 255
-514.623 349.685 -1437.99 0 0 255
-350.771 -554.933 -1434.76 0 0 255
-171.891 -522.529 -1433.67 0 0 255
0 1
1 2
2 3
3 0
4 5
5 6
6 7
7 4
0 4
1 5
2 6
3 7
