ply
format ascii 1.0
element vertex 8
property float x
property float y
property float z
property uchar red
property uchar green
property uchar blue
element edge 12
property int vertex1
property int vertex2
end_header
4255.63 277.928 -1456.77 0 0 255
3946.98 303.168 -1459.47 0 0 255
3872.35 -609.49 -1459.47 0 0 255
4181 -634.73 -1456.78 0 0 255
4255.39 277.947 -1428.77 0 0 255
3946.74 303.187 -1431.47 0 0 255
3872.11 -609.47 -1431.47 0 0 255
4180.76 -634.71 -1428.78 0 0 255
0 1
1 2
2 3
3 0
4 5
5 6
6 7
7 4
0 4
1 5
2 6
3 7
