ply
format ascii 1.0
element vertex 8
property float x
property float y
property float z
property uchar red
property uchar green
property uchar blue
element edge 12
property int vertex1
property int vertex2
end_header
1960.37 82.9589 -1431.94 0 0 255
1941.86 290.768 -1445.01 0 0 255
1023.18 206.905 -1477.53 0 0 255
1041.69 -0.904289 -1464.47 0 0 255
1959.23 84.6132 -1404.01 0 0 255
1940.72 292.422 -1417.08 0 0 255
1022.04 208.559 -1449.61 0 0 255
1040.55 0.750011 -1436.54 0 0 255
0 1
1 2
2 3
3 0
4 5
5 6
6 7
7 4
0 4
1 5
2 6
3 7
