ply
format ascii 1.0
element vertex 8
property float x
property float y
property float z
property uchar red
property uchar green
property uchar blue
element edge 12
property int vertex1
property int vertex2
end_header
7049.24 97.6254 -1471.72 0 0 255
6943.82 360.681 -1453.95 0 0 255
6058.88 5.21369 -1441.4 0 0 255
6164.29 -257.842 -1459.17 0 0 255
7050.23 96.1364 -1443.78 0 0 255
6944.82 359.192 -1426.01 0 0 255
6059.87 3.72461 -1413.46 0 0 255
6165.28 -259.331 -1431.23 0 0 255
0 1
1 2
2 3
3 0
4 5
5 6
6 7
7 4
0 4
1 5
2 6
3 7
