ply
format ascii 1.0
element vertex 8
property float x
property float y
property float z
property uchar red
property uchar green
property uchar blue
element edge 12
property int vertex1
property int vertex2
end_header
5224.95 -178.145 -1464.56 0 0 255
5221 60.6583 -1460.6 0 0 255
4304.22 45.433 -1457.84 0 0 255
4308.18 -193.37 -1461.8 0 0 255
5225.04 -178.607 -1436.56 0 0 255
5221.09 60.196 -1432.61 0 0 255
4304.32 44.9706 -1429.85 0 0 255
4308.27 -193.832 -1433.8 0 0 255
0 1
1 2
2 3
3 0
4 5
5 6
6 7
7 4
0 4
1 5
2 6
3 7
