ply
format ascii 1.0
element vertex 8
property float x
property float y
property float z
property uchar red
property uchar green
property uchar blue
element edge 12
property int vertex1
property int vertex2
end_header
3099.8 314.678 -1468.16 0 0 255
3070.93 138.182 -1466.54 0 0 255
3979.32 -10.3572 -1456.43 0 0 255
4008.19 166.139 -1458.05 0 0 255
3099.54 314.979 -1440.17 0 0 255
3070.66 138.483 -1438.54 0 0 255
3979.05 -10.0562 -1428.43 0 0 255
4007.93 166.44 -1430.06 0 0 255
0 1
1 2
2 3
3 0
4 5
5 6
6 7
7 4
0 4
1 5
2 6
3 7
