ply
format ascii 1.0
element vertex 8
property float x
property float y
property float z
property uchar red
property uchar green
property uchar blue
element edge 12
property int vertex1
property int vertex2
end_header
6505.58 -188.018 -1463.54 0 0 255
6485.52 90.4179 -1461.53 0 0 255
5559.66 23.7003 -1457.65 0 0 255
5579.71 -254.735 -1459.66 0 0 255
6505.71 -188.21 -1435.54 0 0 255
6485.66 90.2253 -1433.53 0 0 255
5559.79 23.5077 -1429.65 0 0 255
5579.85 -254.928 -1431.66 0 0 255
0 1
1 2
2 3
3 0
4 5
5 6
6 7
7 4
0 4
1 5
2 6
3 7
