ply
format ascii 1.0
element vertex 8
property float x
property float y
property float z
property uchar red
property uchar green
property uchar blue
element edge 12
property int vertex1
property int vertex2
end_header
4787.67 457.667 -1458.44 0 0 255
4787.1 107.314 -1455.57 0 0 255
5716.31 105.825 -1454.77 0 0 255
5716.87 456.178 -1457.64 0 0 255
4787.64 457.897 -1430.44 0 0 255
4787.08 107.544 -1427.57 0 0 255
5716.29 106.055 -1426.77 0 0 255
5716.85 456.408 -1429.64 0 0 255
0 1
1 2
2 3
3 0
4 5
5 6
6 7
7 4
0 4
1 5
2 6
3 7
