ply
format ascii 1.0
element vertex 8
property float x
property float y
property float z
property uchar red
property uchar green
property uchar blue
element edge 12
property int vertex1
property int vertex2
end_header
11467.4 -98.0938 -1454.15 0 0 255
11448 186.829 -1459.95 0 0 255
10511.2 122.878 -1467.79 0 0 255
10530.6 -162.045 -1461.99 0 0 255
11467.1 -97.5425 -1426.15 0 0 255
11447.7 187.38 -1431.95 0 0 255
10511 123.429 -1439.8 0 0 255
10530.4 -161.494 -1434 0 0 255
0 1
1 2
2 3
3 0
4 5
5 6
6 7
7 4
0 4
1 5
2 6
3 7
