ply
format ascii 1.0
element vertex 8
property float x
property float y
property float z
property uchar red
property uchar green
property uchar blue
element edge 12
property int vertex1
property int vertex2
end_header
9887.02 -48.4036 -1452.75 0 0 255
9884.97 -500.046 -1455.43 0 0 255
10846.8 -504.386 -1458.7 0 0 255
10848.8 -52.7438 -1456.02 0 0 255
9887.11 -48.5702 -1424.75 0 0 255
9885.06 -500.212 -1427.43 0 0 255
10846.9 -504.552 -1430.7 0 0 255
10848.9 -52.9104 -1428.02 0 0 255
0 1
1 2
2 3
3 0
4 5
5 6
6 7
7 4
0 4
1 5
2 6
3 7
