ply
format ascii 1.0
element vertex 8
property float x
property float y
property float z
property uchar red
property uchar green
property uchar blue
element edge 12
property int vertex1
property int vertex2
end_header
11466.7 -231.791 -1462.47 0 0 255
11415.6 42.2214 -1458.37 0 0 255
10506.7 -127.128 -1460.89 0 0 255
10557.8 -401.14 -1464.99 0 0 255
11466.7 -232.21 -1434.48 0 0 255
11415.6 41.8026 -1430.38 0 0 255
10506.7 -127.547 -1432.89 0 0 255
10557.8 -401.559 -1436.99 0 0 255
0 1
1 2
2 3
3 0
4 5
5 6
6 7
7 4
0 4
1 5
2 6
3 7
