ply
format ascii 1.0
element vertex 8
property float x
property float y
property float z
property uchar red
property uchar green
property uchar blue
element edge 12
property int vertex1
property int vertex2
end_header
12002.2 -377.753 -1454.98 0 0 255
11932.9 -16.9706 -1445.76 0 0 255
11025.7 -190.808 -1457.81 0 0 255
11094.9 -551.59 -1467.02 0 0 255
12002 -378.512 -1426.99 0 0 255
11932.7 -17.7292 -1417.77 0 0 255
11025.5 -191.566 -1429.82 0 0 255
11094.7 -552.349 -1439.04 0 0 255
0 1
1 2
2 3
3 0
4 5
5 6
6 7
7 4
0 4
1 5
2 6
3 7
