ply
format ascii 1.0
element vertex 8
property float x
property float y
property float z
property uchar red
property uchar green
property uchar blue
element edge 12
property int vertex1
property int vertex2
end_header
6505.41 -190.229 -1463.65 0 0 255
6486.33 88.8093 -1461.44 0 0 255
5560.36 25.473 -1457.65 0 0 255
5579.43 -253.565 -1459.86 0 0 255
6505.53 -190.442 -1435.65 0 0 255
6486.46 88.5964 -1433.44 0 0 255
5560.48 25.2601 -1429.65 0 0 255
5579.56 -253.778 -1431.86 0 0 255
0 1
1 2
2 3
3 0
4 5
5 6
6 7
7 4
0 4
1 5
2 6
3 7
