ply
format ascii 1.0
element vertex 8
property float x
property float y
property float z
property uchar red
property uchar green
property uchar blue
element edge 12
property int vertex1
property int vertex2
end_header
5183.34 -334.642 -1464.17 0 0 255
5142.88 -81.7689 -1462.17 0 0 255
4251.01 -224.502 -1458.28 0 0 255
4291.47 -477.375 -1460.27 0 0 255
5183.49 -334.838 -1436.17 0 0 255
5143.03 -81.9649 -1434.18 0 0 255
4251.16 -224.698 -1430.28 0 0 255
4291.63 -477.571 -1432.28 0 0 255
0 1
1 2
2 3
3 0
4 5
5 6
6 7
7 4
0 4
1 5
2 6
3 7
