ply
format ascii 1.0
element vertex 8
property float x
property float y
property float z
property uchar red
property uchar green
property uchar blue
element edge 12
property int vertex1
property int vertex2
end_header
1006.86 476.763 -1459.24 0 0 255
988.443 182.944 -1452.15 0 0 255
1918.45 124.643 -1453.05 0 0 255
1936.86 418.461 -1460.14 0 0 255
1006.92 477.434 -1431.25 0 0 255
988.512 183.616 -1424.16 0 0 255
1918.52 125.314 -1425.06 0 0 255
1936.93 419.133 -1432.15 0 0 255
0 1
1 2
2 3
3 0
4 5
5 6
6 7
7 4
0 4
1 5
2 6
3 7
