ply
format ascii 1.0
element vertex 8
property float x
property float y
property float z
property uchar red
property uchar green
property uchar blue
element edge 12
property int vertex1
property int vertex2
end_header
9887.06 -48.182 -1452.72 0 0 255
9884.89 -499.853 -1455.33 0 0 255
10846.8 -504.456 -1458.66 0 0 255
10848.9 -52.7843 -1456.05 0 0 255
9887.15 -48.3443 -1424.72 0 0 255
9884.98 -500.016 -1427.33 0 0 255
10846.9 -504.618 -1430.66 0 0 255
10849 -52.9466 -1428.05 0 0 255
0 1
1 2
2 3
3 0
4 5
5 6
6 7
7 4
0 4
1 5
2 6
3 7
