ply
format ascii 1.0
element vertex 8
property float x
property float y
property float z
property uchar red
property uchar green
property uchar blue
element edge 12
property int vertex1
property int vertex2
end_header
9549.75 226.001 -1464.47 0 0 255
9360.45 618.181 -1443.31 0 0 255
8497.03 201.413 -1443.03 0 0 255
8686.33 -190.767 -1464.19 0 0 255
9550.35 224.781 -1436.51 0 0 255
9361.05 616.961 -1415.34 0 0 255
8497.63 200.192 -1415.07 0 0 255
8686.93 -191.988 -1436.23 0 0 255
0 1
1 2
2 3
3 0
4 5
5 6
6 7
7 4
0 4
1 5
2 6
3 7
