ply
format ascii 1.0
element vertex 8
property float x
property float y
property float z
property uchar red
property uchar green
property uchar blue
element edge 12
property int vertex1
property int vertex2
end_header
8982.6 -445.485 -1459.61 0 0 255
8958.73 -90.3995 -1460.88 0 0 255
8039.85 -152.171 -1458.45 0 0 255
8063.72 -507.257 -1457.19 0 0 255
8982.67 -445.381 -1431.61 0 0 255
8958.8 -90.295 -1432.88 0 0 255
8039.92 -152.067 -1430.45 0 0 255
8063.79 -507.152 -1429.19 0 0 255
0 1
1 2
2 3
3 0
4 5
5 6
6 7
7 4
0 4
1 5
2 6
3 7
