ply
format ascii 1.0
element vertex 8
property float x
property float y
property float z
property uchar red
property uchar green
property uchar blue
element edge 12
property int vertex1
property int vertex2
end_header
6987.71 302.976 -1461.04 0 0 255
6887.51 518.62 -1460.11 0 0 255
6053.05 130.866 -1456.9 0 0 255
6153.25 -84.7781 -1457.83 0 0 255
6987.85 302.918 -1433.04 0 0 255
6887.65 518.561 -1432.11 0 0 255
6053.18 130.807 -1428.9 0 0 255
6153.38 -84.8367 -1429.83 0 0 255
0 1
1 2
2 3
3 0
4 5
5 6
6 7
7 4
0 4
1 5
2 6
3 7
