ply
format ascii 1.0
element vertex 8
property float x
property float y
property float z
property uchar red
property uchar green
property uchar blue
element edge 12
property int vertex1
property int vertex2
end_header
11467.2 -97.8828 -1454.1 0 0 255
11447.8 186.52 -1459.86 0 0 255
10511.1 122.54 -1467.78 0 0 255
10530.5 -161.863 -1462.02 0 0 255
11466.9 -97.334 -1426.11 0 0 255
11447.6 187.069 -1431.87 0 0 255
10510.8 123.089 -1439.79 0 0 255
10530.2 -161.314 -1434.03 0 0 255
0 1
1 2
2 3
3 0
4 5
5 6
6 7
7 4
0 4
1 5
2 6
3 7
