ply
format ascii 1.0
element vertex 8
property float x
property float y
property float z
property uchar red
property uchar green
property uchar blue
element edge 12
property int vertex1
property int vertex2
end_header
9915.39 451.919 -1451.17 0 0 255
9863.95 72.3927 -1455.87 0 0 255
10795.6 -53.7973 -1462.93 0 0 255
10847.1 325.729 -1458.23 0 0 255
9915.55 451.551 -1423.18 0 0 255
9864.11 72.0243 -1427.87 0 0 255
10795.8 -54.1657 -1434.93 0 0 255
10847.2 325.361 -1430.23 0 0 255
0 1
1 2
2 3
3 0
4 5
5 6
6 7
7 4
0 4
1 5
2 6
3 7
