ply
format ascii 1.0
element vertex 8
property float x
property float y
property float z
property uchar red
property uchar green
property uchar blue
element edge 12
property int vertex1
property int vertex2
end_header
2925 346.183 -1451.6 0 0 255
2837.85 550.119 -1448.61 0 0 255
1992.6 189.216 -1470.09 0 0 255
2079.75 -14.7195 -1473.08 0 0 255
2924.55 345.579 -1423.61 0 0 255
2837.4 549.515 -1420.62 0 0 255
1992.14 188.612 -1442.1 0 0 255
2079.29 -15.3236 -1445.09 0 0 255
0 1
1 2
2 3
3 0
4 5
5 6
6 7
7 4
0 4
1 5
2 6
3 7
