ply
format ascii 1.0
element vertex 8
property float x
property float y
property float z
property uchar red
property uchar green
property uchar blue
element edge 12
property int vertex1
property int vertex2
end_header
395.034 385.669 -1449.45 0 0 255
194.021 639.199 -1454.92 0 0 255
-528.958 65.6234 -1471.32 0 0 255
-327.944 -187.906 -1465.84 0 0 255
394.35 385.732 -1421.46 0 0 255
193.336 639.262 -1426.93 0 0 255
-529.642 65.6858 -1443.33 0 0 255
-328.628 -187.844 -1437.85 0 0 255
0 1
1 2
2 3
3 0
4 5
5 6
6 7
7 4
0 4
1 5
2 6
3 7
