ply
format ascii 1.0
element vertex 8
property float x
property float y
property float z
property uchar red
property uchar green
property uchar blue
element edge 12
property int vertex1
property int vertex2
end_header
9632.64 -270.286 -1440.65 0 0 255
9532.87 68.8239 -1454.67 0 0 255
8640.12 -194.284 -1465.79 0 0 255
8739.88 -533.394 -1451.77 0 0 255
9632 -269.316 -1412.67 0 0 255
9532.24 69.794 -1426.69 0 0 255
8639.48 -193.313 -1437.81 0 0 255
8739.25 -532.424 -1423.79 0 0 255
0 1
1 2
2 3
3 0
4 5
5 6
6 7
7 4
0 4
1 5
2 6
3 7
