ply
format ascii 1.0
element vertex 8
property float x
property float y
property float z
property uchar red
property uchar green
property uchar blue
element edge 12
property int vertex1
property int vertex2
end_header
11468.2 -232.853 -1462.57 0 0 255
11416.3 44.2167 -1458.32 0 0 255
10505 -126.46 -1460.95 0 0 255
10556.9 -403.53 -1465.2 0 0 255
11468.2 -233.282 -1434.57 0 0 255
11416.3 43.7876 -1430.33 0 0 255
10505 -126.89 -1432.96 0 0 255
10556.9 -403.959 -1437.2 0 0 255
0 1
1 2
2 3
3 0
4 5
5 6
6 7
7 4
0 4
1 5
2 6
3 7
