ply
format ascii 1.0
element vertex 8
property float x
property float y
property float z
property uchar red
property uchar green
property uchar blue
element edge 12
property int vertex1
property int vertex2
end_header
7893.49 330.899 -1451.7 0 0 255
7590.54 311.473 -1456.23 0 0 255
7649.58 -608.423 -1460.09 0 0 255
7952.53 -588.998 -1455.56 0 0 255
7893.08 330.755 -1423.7 0 0 255
7590.13 311.33 -1428.24 0 0 255
7649.17 -608.567 -1432.09 0 0 255
7952.12 -589.142 -1427.56 0 0 255
0 1
1 2
2 3
3 0
4 5
5 6
6 7
7 4
0 4
1 5
2 6
3 7
