ply
format ascii 1.0
element vertex 8
property float x
property float y
property float z
property uchar red
property uchar green
property uchar blue
element edge 12
property int vertex1
property int vertex2
end_header
4841.93 43.8205 -1456.01 0 0 255
4783.73 -330.282 -1463.67 0 0 255
5697.07 -472.565 -1455.12 0 0 255
5755.28 -98.4622 -1447.46 0 0 255
4841.59 43.3011 -1428.02 0 0 255
4783.38 -330.802 -1435.68 0 0 255
5696.73 -473.085 -1427.12 0 0 255
5754.94 -98.9816 -1419.47 0 0 255
0 1
1 2
2 3
3 0
4 5
5 6
6 7
7 4
0 4
1 5
2 6
3 7
