ply
format ascii 1.0
element vertex 8
property float x
property float y
property float z
property uchar red
property uchar green
property uchar blue
element edge 12
property int vertex1
property int vertex2
end_header
4786.82 455.884 -1458.44 0 0 255
4786.51 108.725 -1455.49 0 0 255
5717.84 107.888 -1454.81 0 0 255
5718.15 455.047 -1457.76 0 0 255
4786.8 456.122 -1430.44 0 0 255
4786.49 108.963 -1427.49 0 0 255
5717.82 108.126 -1426.81 0 0 255
5718.13 455.285 -1429.76 0 0 255
0 1
1 2
2 3
3 0
4 5
5 6
6 7
7 4
0 4
1 5
2 6
3 7
