ply
format ascii 1.0
element vertex 8
property float x
property float y
property float z
property uchar red
property uchar green
property uchar blue
element edge 12
property int vertex1
property int vertex2
end_header
8990.35 21.1538 -1461.73 0 0 255
8951.98 248.316 -1450.71 0 0 255
8032.28 93.1434 -1454.24 0 0 255
8070.65 -134.019 -1465.27 0 0 255
8990.47 19.8165 -1433.76 0 0 255
8952.1 246.979 -1422.74 0 0 255
8032.4 91.8061 -1426.27 0 0 255
8070.77 -135.357 -1437.3 0 0 255
0 1
1 2
2 3
3 0
4 5
5 6
6 7
7 4
0 4
1 5
2 6
3 7
