ply
format ascii 1.0
element vertex 8
property float x
property float y
property float z
property uchar red
property uchar green
property uchar blue
element edge 12
property int vertex1
property int vertex2
end_header
5777.17 -75.569 -1454.45 0 0 255
5745.38 278.2 -1450.54 0 0 255
4816.52 194.805 -1457.35 0 0 255
4848.32 -158.964 -1461.26 0 0 255
5777 -75.8941 -1426.45 0 0 255
5745.2 277.875 -1422.54 0 0 255
4816.35 194.48 -1429.36 0 0 255
4848.14 -159.289 -1433.26 0 0 255
0 1
1 2
2 3
3 0
4 5
5 6
6 7
7 4
0 4
1 5
2 6
3 7
