ply
format ascii 1.0
element vertex 8
property float x
property float y
property float z
property uchar red
property uchar green
property uchar blue
element edge 12
property int vertex1
property int vertex2
end_header
4055.35 288.277 -1467.28 0 0 255
3814.33 323.657 -1466.56 0 0 255
3681.87 -578.925 -1455.21 0 0 255
3922.9 -614.305 -1455.92 0 0 255
4055.48 288.61 -1439.28 0 0 255
3814.46 323.99 -1438.56 0 0 255
3682.01 -578.593 -1427.21 0 0 255
3923.03 -613.972 -1427.92 0 0 255
0 1
1 2
2 3
3 0
4 5
5 6
6 7
7 4
0 4
1 5
2 6
3 7
