ply
format ascii 1.0
element vertex 8
property float x
property float y
property float z
property uchar red
property uchar green
property uchar blue
element edge 12
property int vertex1
property int vertex2
end_header
9634.03 -273.263 -1440.71 0 0 255
9532.44 72.0716 -1454.77 0 0 255
8639.02 -191.19 -1465.8 0 0 255
8740.61 -536.524 -1451.74 0 0 255
9633.4 -272.308 -1412.73 0 0 255
9531.81 73.0261 -1426.79 0 0 255
8638.39 -190.235 -1437.82 0 0 255
8739.98 -535.57 -1423.76 0 0 255
0 1
1 2
2 3
3 0
4 5
5 6
6 7
7 4
0 4
1 5
2 6
3 7
