ply
format ascii 1.0
element vertex 8
property float x
property float y
property float z
property uchar red
property uchar green
property uchar blue
element edge 12
property int vertex1
property int vertex2
end_header
11462.8 -233.038 -1462.43 0 0 255
11411.8 41.5731 -1458.42 0 0 255
10510.7 -125.638 -1460.89 0 0 255
10561.6 -400.249 -1464.91 0 0 255
11462.8 -233.447 -1434.44 0 0 255
11411.8 41.1636 -1430.42 0 0 255
10510.7 -126.048 -1432.9 0 0 255
10561.6 -400.658 -1436.91 0 0 255
0 1
1 2
2 3
3 0
4 5
5 6
6 7
7 4
0 4
1 5
2 6
3 7
