ply
format ascii 1.0
element vertex 8
property float x
property float y
property float z
property uchar red
property uchar green
property uchar blue
element edge 12
property int vertex1
property int vertex2
end_header
4044.75 281.247 -1465.75 0 0 255
3803.99 312.418 -1465.75 0 0 255
3686.69 -593.571 -1456 0 0 255
3927.46 -624.742 -1456 0 0 255
4044.79 281.543 -1437.75 0 0 255
3804.02 312.714 -1437.75 0 0 255
3686.73 -593.275 -1428 0 0 255
3927.5 -624.445 -1428 0 0 255
0 1
1 2
2 3
3 0
4 5
5 6
6 7
7 4
0 4
1 5
2 6
3 7
