ply
format ascii 1.0
element vertex 8
property float x
property float y
property float z
property uchar red
property uchar green
property uchar blue
element edge 12
property int vertex1
property int vertex2
end_header
9540.74 229.46 -1464.09 0 0 255
9356.87 609.666 -1443.53 0 0 255
8504.91 197.644 -1443.39 0 0 255
8688.78 -182.563 -1463.95 0 0 255
9541.33 228.236 -1436.12 0 0 255
9357.46 608.442 -1415.56 0 0 255
8505.5 196.42 -1415.42 0 0 255
8689.37 -183.786 -1435.98 0 0 255
0 1
1 2
2 3
3 0
4 5
5 6
6 7
7 4
0 4
1 5
2 6
3 7
