ply
format ascii 1.0
element vertex 8
property float x
property float y
property float z
property uchar red
property uchar green
property uchar blue
element edge 12
property int vertex1
property int vertex2
end_header
10822.4 -181.259 -1451.91 0 0 255
10816.6 103.798 -1457.52 0 0 255
9875.65 84.4135 -1462.01 0 0 255
9881.49 -200.643 -1456.4 0 0 255
10822.3 -180.711 -1423.92 0 0 255
10816.4 104.346 -1429.53 0 0 255
9875.5 84.9612 -1434.01 0 0 255
9881.35 -200.096 -1428.41 0 0 255
0 1
1 2
2 3
3 0
4 5
5 6
6 7
7 4
0 4
1 5
2 6
3 7
