ply
format ascii 1.0
element vertex 8
property float x
property float y
property float z
property uchar red
property uchar green
property uchar blue
element edge 12
property int vertex1
property int vertex2
end_header
9357.35 438.605 -1467.2 0 0 255
9335.4 33.3904 -1450.8 0 0 255
10263.3 -16.7176 -1446.67 0 0 255
10285.3 388.497 -1463.07 0 0 255
9357.29 439.741 -1439.22 0 0 255
9335.34 34.5263 -1422.82 0 0 255
10263.3 -15.5817 -1418.69 0 0 255
10285.2 389.633 -1435.09 0 0 255
0 1
1 2
2 3
3 0
4 5
5 6
6 7
7 4
0 4
1 5
2 6
3 7
