ply
format ascii 1.0
element vertex 8
property float x
property float y
property float z
property uchar red
property uchar green
property uchar blue
element edge 12
property int vertex1
property int vertex2
end_header
11983.9 -14.9059 -1453.91 0 0 255
11964.2 298.764 -1454.52 0 0 255
11041.4 240.722 -1462.41 0 0 255
11061.1 -72.9478 -1461.8 0 0 255
11983.7 -14.8668 -1425.91 0 0 255
11963.9 298.803 -1426.52 0 0 255
11041.2 240.761 -1434.41 0 0 255
11060.9 -72.9087 -1433.8 0 0 255
0 1
1 2
2 3
3 0
4 5
5 6
6 7
7 4
0 4
1 5
2 6
3 7
