ply
format ascii 1.0
element vertex 8
property float x
property float y
property float z
property uchar red
property uchar green
property uchar blue
element edge 12
property int vertex1
property int vertex2
end_header
5573.49 242.422 -1455.52 0 0 255
5556.63 25.9186 -1455.6 0 0 255
6484.77 -46.3577 -1465.52 0 0 255
6501.63 170.145 -1465.44 0 0 255
5573.79 242.388 -1427.52 0 0 255
5556.93 25.885 -1427.61 0 0 255
6485.06 -46.3912 -1437.52 0 0 255
6501.92 170.112 -1437.44 0 0 255
0 1
1 2
2 3
3 0
4 5
5 6
6 7
7 4
0 4
1 5
2 6
3 7
