ply
format ascii 1.0
element vertex 8
property float x
property float y
property float z
property uchar red
property uchar green
property uchar blue
element edge 12
property int vertex1
property int vertex2
end_header
1428.99 -431.42 -1457.31 0 0 255
1424.67 -151.039 -1452.15 0 0 255
481.808 -165.333 -1464.99 0 0 255
486.129 -445.715 -1470.15 0 0 255
1428.62 -431.942 -1429.32 0 0 255
1424.3 -151.56 -1424.16 0 0 255
481.435 -165.855 -1437 0 0 255
485.756 -446.236 -1442.16 0 0 255
0 1
1 2
2 3
3 0
4 5
5 6
6 7
7 4
0 4
1 5
2 6
3 7
