ply
format ascii 1.0
element vertex 8
property float x
property float y
property float z
property uchar red
property uchar green
property uchar blue
element edge 12
property int vertex1
property int vertex2
end_header
5783.64 -85.0653 -1454.57 0 0 255
5749.09 290.949 -1450.88 0 0 255
4811.86 204.9 -1457.31 0 0 255
4846.41 -171.114 -1461.01 0 0 255
5783.47 -85.3556 -1426.57 0 0 255
5748.92 290.658 -1422.88 0 0 255
4811.7 204.61 -1429.31 0 0 255
4846.24 -171.404 -1433.01 0 0 255
0 1
1 2
2 3
3 0
4 5
5 6
6 7
7 4
0 4
1 5
2 6
3 7
