ply
format ascii 1.0
element vertex 8
property float x
property float y
property float z
property uchar red
property uchar green
property uchar blue
element edge 12
property int vertex1
property int vertex2
end_header
8079.26 474.883 -1460.3 0 0 255
7715.2 417.302 -1460.32 0 0 255
7865.79 -534.852 -1448.06 0 0 255
8229.85 -477.271 -1448.03 0 0 255
8079.2 475.235 -1432.3 0 0 255
7715.14 417.654 -1432.33 0 0 255
7865.73 -534.501 -1420.06 0 0 255
8229.8 -476.92 -1420.03 0 0 255
0 1
1 2
2 3
3 0
4 5
5 6
6 7
7 4
0 4
1 5
2 6
3 7
