ply
format ascii 1.0
element vertex 8
property float x
property float y
property float z
property uchar red
property uchar green
property uchar blue
element edge 12
property int vertex1
property int vertex2
end_header
4841.75 42.7094 -1456.08 0 0 255
4783.91 -328.819 -1463.58 0 0 255
5697.23 -471.181 -1455 0 0 255
5755.07 -99.6521 -1447.5 0 0 255
4841.41 42.1977 -1428.09 0 0 255
4783.57 -329.331 -1435.59 0 0 255
5696.88 -471.692 -1427.01 0 0 255
5754.73 -100.164 -1419.51 0 0 255
0 1
1 2
2 3
3 0
4 5
5 6
6 7
7 4
0 4
1 5
2 6
3 7
