ply
format ascii 1.0
element vertex 8
property float x
property float y
property float z
property uchar red
property uchar green
property uchar blue
element edge 12
property int vertex1
property int vertex2
end_header
1950.06 79.9619 -1432.64 0 0 255
1935.68 279.318 -1444.33 0 0 255
1015.04 210.967 -1477.59 0 0 255
1029.42 11.6102 -1465.9 0 0 255
1948.94 81.5185 -1404.71 0 0 255
1934.56 280.875 -1416.39 0 0 255
1013.92 212.523 -1449.66 0 0 255
1028.3 13.1668 -1437.97 0 0 255
0 1
1 2
2 3
3 0
4 5
5 6
6 7
7 4
0 4
1 5
2 6
3 7
