ply
format ascii 1.0
element vertex 8
property float x
property float y
property float z
property uchar red
property uchar green
property uchar blue
element edge 12
property int vertex1
property int vertex2
end_header
4780.4 458.355 -1458.34 0 0 255
4779.41 107.877 -1455.6 0 0 255
5726.26 105.209 -1455.15 0 0 255
5727.25 455.687 -1457.89 0 0 255
4780.39 458.573 -1430.34 0 0 255
4779.4 108.096 -1427.6 0 0 255
5726.25 105.428 -1427.15 0 0 255
5727.24 455.906 -1429.89 0 0 255
0 1
1 2
2 3
3 0
4 5
5 6
6 7
7 4
0 4
1 5
2 6
3 7
