ply
format ascii 1.0
element vertex 8
property float x
property float y
property float z
property uchar red
property uchar green
property uchar blue
element edge 12
property int vertex1
property int vertex2
end_header
6971.48 -164.709 -1455.76 0 0 255
6867.74 147.894 -1450.66 0 0 255
6187.94 -77.644 -1454.2 0 0 255
6291.68 -390.247 -1459.3 0 0 255
6971.49 -165.164 -1427.76 0 0 255
6867.75 147.439 -1422.66 0 0 255
6187.94 -78.0992 -1426.2 0 0 255
6291.68 -390.702 -1431.3 0 0 255
0 1
1 2
2 3
3 0
4 5
5 6
6 7
7 4
0 4
1 5
2 6
3 7
