ply
format ascii 1.0
element vertex 8
property float x
property float y
property float z
property uchar red
property uchar green
property uchar blue
element edge 12
property int vertex1
property int vertex2
end_header
10272 -462.561 -1462.98 0 0 255
10258.4 -106.362 -1462.85 0 0 255
9348.86 -141.183 -1454.71 0 0 255
9362.5 -497.382 -1454.84 0 0 255
10272.3 -462.561 -1434.98 0 0 255
10258.6 -106.362 -1434.85 0 0 255
9349.11 -141.184 -1426.71 0 0 255
9362.75 -497.383 -1426.84 0 0 255
0 1
1 2
2 3
3 0
4 5
5 6
6 7
7 4
0 4
1 5
2 6
3 7
