ply
format ascii 1.0
element vertex 8
property float x
property float y
property float z
property uchar red
property uchar green
property uchar blue
element edge 12
property int vertex1
property int vertex2
end_header
11466.9 -98.2051 -1454.08 0 0 255
11447.5 186.742 -1459.85 0 0 255
10510.7 122.928 -1467.89 0 0 255
10530.1 -162.019 -1462.12 0 0 255
11466.6 -97.6571 -1426.09 0 0 255
11447.2 187.29 -1431.86 0 0 255
10510.5 123.476 -1439.9 0 0 255
10529.8 -161.471 -1434.13 0 0 255
0 1
1 2
2 3
3 0
4 5
5 6
6 7
7 4
0 4
1 5
2 6
3 7
