ply
format ascii 1.0
element vertex 8
property float x
property float y
property float z
property uchar red
property uchar green
property uchar blue
element edge 12
property int vertex1
property int vertex2
end_header
9373.76 157.186 -1458.23 0 0 255
9341.38 -172.305 -1461.63 0 0 255
10254.8 -262.051 -1463.82 0 0 255
10287.2 67.4394 -1460.41 0 0 255
9373.8 156.893 -1430.23 0 0 255
9341.42 -172.597 -1433.64 0 0 255
10254.8 -262.344 -1435.82 0 0 255
10287.2 67.1467 -1432.42 0 0 255
0 1
1 2
2 3
3 0
4 5
5 6
6 7
7 4
0 4
1 5
2 6
3 7
