ply
format ascii 1.0
element vertex 8
property float x
property float y
property float z
property uchar red
property uchar green
property uchar blue
element edge 12
property int vertex1
property int vertex2
end_header
7696.32 -389.895 -1464.98 0 0 255
7680.93 -116.63 -1455.45 0 0 255
6779.93 -167.621 -1448.6 0 0 255
6795.32 -440.886 -1458.13 0 0 255
7696.59 -390.855 -1437 0 0 255
7681.2 -117.59 -1427.47 0 0 255
6780.19 -168.582 -1420.62 0 0 255
6795.59 -441.846 -1430.15 0 0 255
0 1
1 2
2 3
3 0
4 5
5 6
6 7
7 4
0 4
1 5
2 6
3 7
