ply
format ascii 1.0
element vertex 8
property float x
property float y
property float z
property uchar red
property uchar green
property uchar blue
element edge 12
property int vertex1
property int vertex2
end_header
1947.94 78.3943 -1432.85 0 0 255
1934.06 278.631 -1444.32 0 0 255
1013.1 212.868 -1477.71 0 0 255
1026.98 12.6312 -1466.24 0 0 255
1946.82 79.9166 -1404.92 0 0 255
1932.93 280.154 -1416.39 0 0 255
1011.98 214.391 -1449.77 0 0 255
1025.86 14.1535 -1438.3 0 0 255
0 1
1 2
2 3
3 0
4 5
5 6
6 7
7 4
0 4
1 5
2 6
3 7
