ply
format ascii 1.0
element vertex 8
property float x
property float y
property float z
property uchar red
property uchar green
property uchar blue
element edge 12
property int vertex1
property int vertex2
end_header
6987.91 302.813 -1461.01 0 0 255
6887.77 518.573 -1460.2 0 0 255
6053.14 131.222 -1456.92 0 0 255
6153.27 -84.5388 -1457.74 0 0 255
6988.04 302.767 -1433.01 0 0 255
6887.91 518.528 -1432.2 0 0 255
6053.27 131.176 -1428.92 0 0 255
6153.4 -84.5842 -1429.74 0 0 255
0 1
1 2
2 3
3 0
4 5
5 6
6 7
7 4
0 4
1 5
2 6
3 7
