ply
format ascii 1.0
element vertex 8
property float x
property float y
property float z
property uchar red
property uchar green
property uchar blue
element edge 12
property int vertex1
property int vertex2
end_header
8982.44 -445.693 -1459.53 0 0 255
8958.78 -90.5724 -1460.94 0 0 255
8039.91 -151.778 -1458.57 0 0 255
8063.57 -506.899 -1457.16 0 0 255
8982.5 -445.578 -1431.53 0 0 255
8958.84 -90.4569 -1432.94 0 0 255
8039.97 -151.663 -1430.57 0 0 255
8063.63 -506.784 -1429.16 0 0 255
0 1
1 2
2 3
3 0
4 5
5 6
6 7
7 4
0 4
1 5
2 6
3 7
