ply
format ascii 1.0
element vertex 8
property float x
property float y
property float z
property uchar red
property uchar green
property uchar blue
element edge 12
property int vertex1
property int vertex2
end_header
4847.88 55.6544 -1455.71 0 0 255
4785.53 -342.182 -1463.94 0 0 255
5690.52 -484.205 -1455.33 0 0 255
5752.87 -86.3682 -1447.1 0 0 255
4847.53 55.1299 -1427.72 0 0 255
4785.18 -342.707 -1435.95 0 0 255
5690.17 -484.729 -1427.34 0 0 255
5752.53 -86.8927 -1419.11 0 0 255
0 1
1 2
2 3
3 0
4 5
5 6
6 7
7 4
0 4
1 5
2 6
3 7
