ply
format ascii 1.0
element vertex 8
property float x
property float y
property float z
property uchar red
property uchar green
property uchar blue
element edge 12
property int vertex1
property int vertex2
end_header
206.644 381.513 -1457.89 0 0 255
4.71794 394.693 -1458.78 0 0 255
-54.0284 -505.822 -1465.77 0 0 255
147.897 -519.002 -1464.89 0 0 255
206.508 381.305 -1429.9 0 0 255
4.58195 394.485 -1430.78 0 0 255
-54.1644 -506.031 -1437.78 0 0 255
147.761 -519.211 -1436.89 0 0 255
0 1
1 2
2 3
3 0
4 5
5 6
6 7
7 4
0 4
1 5
2 6
3 7
