ply
format ascii 1.0
element vertex 8
property float x
property float y
property float z
property uchar red
property uchar green
property uchar blue
element edge 12
property int vertex1
property int vertex2
end_header
6502.63 -358.922 -1462.66 0 0 255
6479.65 -104.316 -1456.63 0 0 255
5571.46 -186.198 -1461.28 0 0 255
5594.44 -440.804 -1467.31 0 0 255
6502.55 -359.592 -1434.67 0 0 255
6479.56 -104.986 -1428.64 0 0 255
5571.38 -186.868 -1433.29 0 0 255
5594.36 -441.474 -1439.32 0 0 255
0 1
1 2
2 3
3 0
4 5
5 6
6 7
7 4
0 4
1 5
2 6
3 7
