ply
format ascii 1.0
element vertex 8
property float x
property float y
property float z
property uchar red
property uchar green
property uchar blue
element edge 12
property int vertex1
property int vertex2
end_header
12002.2 -377.585 -1454.95 0 0 255
11932.9 -16.837 -1445.83 0 0 255
11025.7 -190.83 -1457.85 0 0 255
11095 -551.578 -1466.97 0 0 255
12002 -378.336 -1426.96 0 0 255
11932.7 -17.5884 -1417.84 0 0 255
11025.5 -191.581 -1429.86 0 0 255
11094.8 -552.329 -1438.98 0 0 255
0 1
1 2
2 3
3 0
4 5
5 6
6 7
7 4
0 4
1 5
2 6
3 7
