ply
format ascii 1.0
element vertex 8
property float x
property float y
property float z
property uchar red
property uchar green
property uchar blue
element edge 12
property int vertex1
property int vertex2
end_header
3099.5 314.762 -1468.24 0 0 255
3070.61 138.347 -1466.57 0 0 255
3978.65 -10.2652 -1456.23 0 0 255
4007.54 166.15 -1457.9 0 0 255
3099.23 315.07 -1440.24 0 0 255
3070.34 138.655 -1438.58 0 0 255
3978.38 -9.95677 -1428.23 0 0 255
4007.27 166.459 -1429.9 0 0 255
0 1
1 2
2 3
3 0
4 5
5 6
6 7
7 4
0 4
1 5
2 6
3 7
