ply
format ascii 1.0
element vertex 8
property float x
property float y
property float z
property uchar red
property uchar green
property uchar blue
element edge 12
property int vertex1
property int vertex2
end_header
4254.88 278.109 -1456.71 0 0 255
3947.88 303.284 -1459.46 0 0 255
3873.04 -609.33 -1459.46 0 0 255
4180.04 -634.505 -1456.71 0 0 255
4254.63 278.129 -1428.71 0 0 255
3947.63 303.304 -1431.46 0 0 255
3872.79 -609.31 -1431.47 0 0 255
4179.79 -634.485 -1428.71 0 0 255
0 1
1 2
2 3
3 0
4 5
5 6
6 7
7 4
0 4
1 5
2 6
3 7
