ply
format ascii 1.0
element vertex 8
property float x
property float y
property float z
property uchar red
property uchar green
property uchar blue
element edge 12
property int vertex1
property int vertex2
end_header
7678.99 -233.302 -1463.95 0 0 255
7682.01 56.6973 -1462.92 0 0 255
6770.01 66.1464 -1451.06 0 0 255
6766.99 -223.853 -1452.09 0 0 255
7679.35 -233.405 -1435.95 0 0 255
7682.37 56.5944 -1434.92 0 0 255
6770.37 66.0435 -1423.07 0 0 255
6767.36 -223.956 -1424.09 0 0 255
0 1
1 2
2 3
3 0
4 5
5 6
6 7
7 4
0 4
1 5
2 6
3 7
