ply
format ascii 1.0
element vertex 8
property float x
property float y
property float z
property uchar red
property uchar green
property uchar blue
element edge 12
property int vertex1
property int vertex2
end_header
3102.19 463.049 -1458.51 0 0 255
2877.88 579.32 -1456.8 0 0 255
2452.32 -241.595 -1461.2 0 0 255
2676.63 -357.866 -1462.91 0 0 255
3102.3 462.843 -1430.51 0 0 255
2877.99 579.114 -1428.8 0 0 255
2452.43 -241.8 -1433.2 0 0 255
2676.74 -358.071 -1434.91 0 0 255
0 1
1 2
2 3
3 0
4 5
5 6
6 7
7 4
0 4
1 5
2 6
3 7
