ply
format ascii 1.0
element vertex 8
property float x
property float y
property float z
property uchar red
property uchar green
property uchar blue
element edge 12
property int vertex1
property int vertex2
end_header
6506.44 -361.831 -1462.9 0 0 255
6482.82 -100.93 -1456.69 0 0 255
5568.89 -183.565 -1461.17 0 0 255
5592.51 -444.466 -1467.38 0 0 255
6506.37 -362.503 -1434.9 0 0 255
6482.75 -101.602 -1428.7 0 0 255
5568.81 -184.238 -1433.18 0 0 255
5592.43 -445.139 -1439.39 0 0 255
0 1
1 2
2 3
3 0
4 5
5 6
6 7
7 4
0 4
1 5
2 6
3 7
