ply
format ascii 1.0
element vertex 8
property float x
property float y
property float z
property uchar red
property uchar green
property uchar blue
element edge 12
property int vertex1
property int vertex2
end_header
8974.49 -147.828 -1457.82 0 0 255
8952.3 29.4247 -1453.2 0 0 255
8037.11 -84.8939 -1461.6 0 0 255
8059.29 -262.147 -1466.22 0 0 255
8974.32 -148.578 -1429.83 0 0 255
8952.14 28.6754 -1425.21 0 0 255
8036.94 -85.6432 -1433.61 0 0 255
8059.13 -262.896 -1438.23 0 0 255
0 1
1 2
2 3
3 0
4 5
5 6
6 7
7 4
0 4
1 5
2 6
3 7
