ply
format ascii 1.0
element vertex 8
property float x
property float y
property float z
property uchar red
property uchar green
property uchar blue
element edge 12
property int vertex1
property int vertex2
end_header
487.345 421.262 -1461.21 0 0 255
477.113 167.623 -1470.47 0 0 255
1414.75 129.376 -1458.94 0 0 255
1424.98 383.015 -1449.68 0 0 255
486.96 420.256 -1433.23 0 0 255
476.728 166.617 -1442.49 0 0 255
1414.36 128.37 -1430.97 0 0 255
1424.59 382.009 -1421.7 0 0 255
0 1
1 2
2 3
3 0
4 5
5 6
6 7
7 4
0 4
1 5
2 6
3 7
