ply
format ascii 1.0
element vertex 8
property float x
property float y
property float z
property uchar red
property uchar green
property uchar blue
element edge 12
property int vertex1
property int vertex2
end_header
4254.65 278.085 -1456.54 0 0 255
3947.35 303.07 -1459.37 0 0 255
3873.03 -611.086 -1459.68 0 0 255
4180.32 -636.071 -1456.86 0 0 255
4254.39 278.096 -1428.54 0 0 255
3947.09 303.081 -1431.37 0 0 255
3872.77 -611.075 -1431.68 0 0 255
4180.07 -636.06 -1428.86 0 0 255
0 1
1 2
2 3
3 0
4 5
5 6
6 7
7 4
0 4
1 5
2 6
3 7
