ply
format ascii 1.0
element vertex 8
property float x
property float y
property float z
property uchar red
property uchar green
property uchar blue
element edge 12
property int vertex1
property int vertex2
end_header
6775.11 473.186 -1442.08 0 0 255
6691.71 92.9254 -1462.29 0 0 255
7615.51 -109.366 -1468.34 0 0 255
7698.91 270.895 -1448.14 0 0 255
6774.98 471.73 -1414.12 0 0 255
6691.57 91.4695 -1434.33 0 0 255
7615.37 -110.822 -1440.38 0 0 255
7698.77 269.439 -1420.18 0 0 255
0 1
1 2
2 3
3 0
4 5
5 6
6 7
7 4
0 4
1 5
2 6
3 7
