ply
format ascii 1.0
element vertex 8
property float x
property float y
property float z
property uchar red
property uchar green
property uchar blue
element edge 12
property int vertex1
property int vertex2
end_header
482.327 51.4983 -1464.54 0 0 255
477.687 -194.306 -1469.67 0 0 255
1429.38 -212.527 -1457.51 0 0 255
1434.02 33.2778 -1452.38 0 0 255
481.958 50.921 -1436.55 0 0 255
477.318 -194.883 -1441.68 0 0 255
1429.01 -213.104 -1429.52 0 0 255
1433.65 32.7005 -1424.39 0 0 255
0 1
1 2
2 3
3 0
4 5
5 6
6 7
7 4
0 4
1 5
2 6
3 7
