ply
format ascii 1.0
element vertex 8
property float x
property float y
property float z
property uchar red
property uchar green
property uchar blue
element edge 12
property int vertex1
property int vertex2
end_header
2579.7 186.485 -1458.98 0 0 255
2383.9 324.44 -1463.12 0 0 255
1848.19 -435.975 -1465.71 0 0 255
2043.98 -573.93 -1461.57 0 0 255
2579.26 186.7 -1430.99 0 0 255
2383.46 324.655 -1435.13 0 0 255
1847.74 -435.76 -1437.72 0 0 255
2043.54 -573.715 -1433.58 0 0 255
0 1
1 2
2 3
3 0
4 5
5 6
6 7
7 4
0 4
1 5
2 6
3 7
