ply
format ascii 1.0
element vertex 8
property float x
property float y
property float z
property uchar red
property uchar green
property uchar blue
element edge 12
property int vertex1
property int vertex2
end_header
11438.9 45.4368 -1446.79 0 0 255
11418.6 449.045 -1461.5 0 0 255
10486.4 401.917 -1471.23 0 0 255
10506.7 -1.69106 -1456.52 0 0 255
11438.5 46.4392 -1418.81 0 0 255
11418.3 450.047 -1433.52 0 0 255
10486.1 402.919 -1443.25 0 0 255
10506.3 -0.688669 -1428.54 0 0 255
0 1
1 2
2 3
3 0
4 5
5 6
6 7
7 4
0 4
1 5
2 6
3 7
