ply
format ascii 1.0
element vertex 8
property float x
property float y
property float z
property uchar red
property uchar green
property uchar blue
element edge 12
property int vertex1
property int vertex2
end_header
1429.69 -432.235 -1457.46 0 0 255
1425.38 -150.374 -1452.27 0 0 255
482.346 -164.573 -1464.88 0 0 255
486.659 -446.435 -1470.07 0 0 255
1429.32 -432.756 -1429.47 0 0 255
1425.01 -150.895 -1424.28 0 0 255
481.979 -165.095 -1436.88 0 0 255
486.293 -446.956 -1442.08 0 0 255
0 1
1 2
2 3
3 0
4 5
5 6
6 7
7 4
0 4
1 5
2 6
3 7
