ply
format ascii 1.0
element vertex 8
property float x
property float y
property float z
property uchar red
property uchar green
property uchar blue
element edge 12
property int vertex1
property int vertex2
end_header
11983.1 -3.13295 -1454 0 0 255
11965 286.384 -1454.46 0 0 255
11042.3 228.88 -1462.3 0 0 255
11060.3 -60.6365 -1461.83 0 0 255
11982.8 -3.10301 -1426 0 0 255
11964.8 286.414 -1426.46 0 0 255
11042 228.91 -1434.3 0 0 255
11060.1 -60.6065 -1433.83 0 0 255
0 1
1 2
2 3
3 0
4 5
5 6
6 7
7 4
0 4
1 5
2 6
3 7
