ply
format ascii 1.0
element vertex 8
property float x
property float y
property float z
property uchar red
property uchar green
property uchar blue
element edge 12
property int vertex1
property int vertex2
end_header
1528.28 266.24 -1453.22 0 0 255
1280.93 283.407 -1462.09 0 0 255
1218.34 -619.132 -1463.6 0 0 255
1465.7 -636.299 -1454.73 0 0 255
1527.28 266.263 -1425.24 0 0 255
1279.93 283.43 -1434.11 0 0 255
1217.34 -619.109 -1435.61 0 0 255
1464.7 -636.276 -1426.75 0 0 255
0 1
1 2
2 3
3 0
4 5
5 6
6 7
7 4
0 4
1 5
2 6
3 7
