ply
format ascii 1.0
element vertex 8
property float x
property float y
property float z
property uchar red
property uchar green
property uchar blue
element edge 12
property int vertex1
property int vertex2
end_header
1004.86 472.679 -1459.05 0 0 255
988.556 182.053 -1451.84 0 0 255
1926.73 129.372 -1453.3 0 0 255
1943.04 419.999 -1460.51 0 0 255
1004.95 473.369 -1431.06 0 0 255
988.638 182.743 -1423.85 0 0 255
1926.81 130.062 -1425.3 0 0 255
1943.12 420.689 -1432.52 0 0 255
0 1
1 2
2 3
3 0
4 5
5 6
6 7
7 4
0 4
1 5
2 6
3 7
