ply
format ascii 1.0
element vertex 8
property float x
property float y
property float z
property uchar red
property uchar green
property uchar blue
element edge 12
property int vertex1
property int vertex2
end_header
3700.56 251.827 -1454.27 0 0 255
3306.5 336.198 -1466.73 0 0 255
3110.81 -577.684 -1466.09 0 0 255
3504.88 -662.055 -1453.62 0 0 255
3699.72 252.027 -1426.28 0 0 255
3305.66 336.398 -1438.75 0 0 255
3109.97 -577.484 -1438.11 0 0 255
3504.03 -661.855 -1425.64 0 0 255
0 1
1 2
2 3
3 0
4 5
5 6
6 7
7 4
0 4
1 5
2 6
3 7
