ply
format ascii 1.0
element vertex 8
property float x
property float y
property float z
property uchar red
property uchar green
property uchar blue
element edge 12
property int vertex1
property int vertex2
end_header
3698.08 252.694 -1454.35 0 0 255
3298.94 335.101 -1467.5 0 0 255
3110.43 -577.794 -1466.69 0 0 255
3509.57 -660.202 -1453.54 0 0 255
3697.2 252.9 -1426.36 0 0 255
3298.06 335.308 -1439.51 0 0 255
3109.55 -577.588 -1438.71 0 0 255
3508.69 -659.995 -1425.55 0 0 255
0 1
1 2
2 3
3 0
4 5
5 6
6 7
7 4
0 4
1 5
2 6
3 7
