ply
format ascii 1.0
element vertex 8
property float x
property float y
property float z
property uchar red
property uchar green
property uchar blue
element edge 12
property int vertex1
property int vertex2
end_header
8982.59 -446.312 -1459.53 0 0 255
8958.83 -89.7886 -1461.01 0 0 255
8039.96 -151.03 -1458.62 0 0 255
8063.72 -507.554 -1457.13 0 0 255
8982.66 -446.191 -1431.53 0 0 255
8958.89 -89.6676 -1433.02 0 0 255
8040.02 -150.909 -1430.62 0 0 255
8063.79 -507.433 -1429.13 0 0 255
0 1
1 2
2 3
3 0
4 5
5 6
6 7
7 4
0 4
1 5
2 6
3 7
