ply
format ascii 1.0
element vertex 8
property float x
property float y
property float z
property uchar red
property uchar green
property uchar blue
element edge 12
property int vertex1
property int vertex2
end_header
10275.3 -457.474 -1463.09 0 0 255
10258.1 -101.054 -1463.31 0 0 255
9349.43 -145.032 -1454.91 0 0 255
9366.68 -501.451 -1454.7 0 0 255
10275.6 -457.444 -1435.09 0 0 255
10258.3 -101.025 -1435.31 0 0 255
9349.69 -145.002 -1426.91 0 0 255
9366.94 -501.422 -1426.7 0 0 255
0 1
1 2
2 3
3 0
4 5
5 6
6 7
7 4
0 4
1 5
2 6
3 7
