ply
format ascii 1.0
element vertex 8
property float x
property float y
property float z
property uchar red
property uchar green
property uchar blue
element edge 12
property int vertex1
property int vertex2
end_header
11930.6 130.932 -1444.31 0 0 255
11928.8 450.05 -1463.05 0 0 255
11022.9 444.417 -1471.29 0 0 255
11024.7 125.299 -1452.56 0 0 255
11930.3 132.572 -1416.36 0 0 255
11928.5 451.689 -1435.1 0 0 255
11022.7 446.056 -1443.34 0 0 255
11024.5 126.938 -1424.61 0 0 255
0 1
1 2
2 3
3 0
4 5
5 6
6 7
7 4
0 4
1 5
2 6
3 7
