ply
format ascii 1.0
element vertex 8
property float x
property float y
property float z
property uchar red
property uchar green
property uchar blue
element edge 12
property int vertex1
property int vertex2
end_header
3103.88 465.364 -1458.66 0 0 255
2876.23 582.628 -1457.31 0 0 255
2451.14 -242.566 -1461.31 0 0 255
2678.79 -359.83 -1462.67 0 0 255
3103.95 465.188 -1430.67 0 0 255
2876.3 582.453 -1429.31 0 0 255
2451.21 -242.741 -1433.31 0 0 255
2678.86 -360.005 -1434.67 0 0 255
0 1
1 2
2 3
3 0
4 5
5 6
6 7
7 4
0 4
1 5
2 6
3 7
