ply
format ascii 1.0
element vertex 8
property float x
property float y
property float z
property uchar red
property uchar green
property uchar blue
element edge 12
property int vertex1
property int vertex2
end_header
8974.91 -150.255 -1457.94 0 0 255
8952.23 31.4968 -1453.22 0 0 255
8036.96 -82.4559 -1461.55 0 0 255
8059.63 -264.208 -1466.27 0 0 255
8974.74 -151.002 -1429.95 0 0 255
8952.07 30.7497 -1425.23 0 0 255
8036.79 -83.203 -1433.56 0 0 255
8059.46 -264.955 -1438.28 0 0 255
0 1
1 2
2 3
3 0
4 5
5 6
6 7
7 4
0 4
1 5
2 6
3 7
