ply
format ascii 1.0
element vertex 8
property float x
property float y
property float z
property uchar red
property uchar green
property uchar blue
element edge 12
property int vertex1
property int vertex2
end_header
487.654 420.991 -1461.2 0 0 255
477.515 167.556 -1470.36 0 0 255
1415.16 129.633 -1459 0 0 255
1425.3 383.067 -1449.83 0 0 255
487.275 419.994 -1433.22 0 0 255
477.135 166.56 -1442.38 0 0 255
1414.78 128.637 -1431.02 0 0 255
1424.92 382.071 -1421.85 0 0 255
0 1
1 2
2 3
3 0
4 5
5 6
6 7
7 4
0 4
1 5
2 6
3 7
