ply
format ascii 1.0
element vertex 8
property float x
property float y
property float z
property uchar red
property uchar green
property uchar blue
element edge 12
property int vertex1
property int vertex2
end_header
-336.194 381.73 -1464.97 0 0 255
-514.348 349.258 -1465.8 0 0 255
-349.338 -556.111 -1462.74 0 0 255
-171.184 -523.639 -1461.9 0 0 255
-336.338 381.799 -1436.97 0 0 255
-514.492 349.326 -1437.8 0 0 255
-349.482 -556.043 -1434.74 0 0 255
-171.328 -523.57 -1433.9 0 0 255
0 1
1 2
2 3
3 0
4 5
5 6
6 7
7 4
0 4
1 5
2 6
3 7
