ply
format ascii 1.0
element vertex 8
property float x
property float y
property float z
property uchar red
property uchar green
property uchar blue
element edge 12
property int vertex1
property int vertex2
end_header
397.228 384.294 -1449.83 0 0 255
194.324 640.888 -1455.24 0 0 255
-528.499 68.9808 -1470.92 0 0 255
-325.596 -187.613 -1465.51 0 0 255
396.567 384.362 -1421.84 0 0 255
193.664 640.956 -1427.25 0 0 255
-529.16 69.0484 -1442.92 0 0 255
-326.256 -187.546 -1437.52 0 0 255
0 1
1 2
2 3
3 0
4 5
5 6
6 7
7 4
0 4
1 5
2 6
3 7
