ply
format ascii 1.0
element vertex 8
property float x
property float y
property float z
property uchar red
property uchar green
property uchar blue
element edge 12
property int vertex1
property int vertex2
end_header
9631.78 -270.244 -1440.75 0 0 255
9533.25 66.7307 -1454.36 0 0 255
8640.39 -194.785 -1465.68 0 0 255
8738.91 -531.759 -1452.08 0 0 255
9631.15 -269.299 -1412.78 0 0 255
9532.62 67.6754 -1426.38 0 0 255
8639.75 -193.84 -1437.7 0 0 255
8738.28 -530.814 -1424.1 0 0 255
0 1
1 2
2 3
3 0
4 5
5 6
6 7
7 4
0 4
1 5
2 6
3 7
