ply
format ascii 1.0
element vertex 8
property float x
property float y
property float z
property uchar red
property uchar green
property uchar blue
element edge 12
property int vertex1
property int vertex2
end_header
11945.5 134.973 -1444.65 0 0 255
11940.7 456.187 -1463.76 0 0 255
11012.5 441.869 -1471.15 0 0 255
11017.3 120.655 -1452.04 0 0 255
11945.2 136.632 -1416.7 0 0 255
11940.4 457.846 -1435.81 0 0 255
11012.3 443.527 -1443.2 0 0 255
11017.1 122.314 -1424.09 0 0 255
0 1
1 2
2 3
3 0
4 5
5 6
6 7
7 4
0 4
1 5
2 6
3 7
