ply
format ascii 1.0
element vertex 8
property float x
property float y
property float z
property uchar red
property uchar green
property uchar blue
element edge 12
property int vertex1
property int vertex2
end_header
1710.36 329.303 -1443.14 0 0 255
1366.13 284.502 -1448.47 0 0 255
1488.86 -656.682 -1464.03 0 0 255
1833.1 -611.88 -1458.7 0 0 255
1709.99 328.792 -1415.14 0 0 255
1365.76 283.991 -1420.47 0 0 255
1488.5 -657.193 -1436.04 0 0 255
1832.73 -612.391 -1430.71 0 0 255
0 1
1 2
2 3
3 0
4 5
5 6
6 7
7 4
0 4
1 5
2 6
3 7
