ply
format ascii 1.0
element vertex 8
property float x
property float y
property float z
property uchar red
property uchar green
property uchar blue
element edge 12
property int vertex1
property int vertex2
end_header
572.666 346.365 -1465.21 0 0 255
167.535 409.869 -1465.02 0 0 255
23.4039 -509.678 -1450.16 0 0 255
428.535 -573.182 -1450.35 0 0 255
572.749 346.804 -1437.22 0 0 255
167.617 410.308 -1437.02 0 0 255
23.4863 -509.238 -1422.16 0 0 255
428.618 -572.742 -1422.35 0 0 255
0 1
1 2
2 3
3 0
4 5
5 6
6 7
7 4
0 4
1 5
2 6
3 7
