ply
format ascii 1.0
element vertex 8
property float x
property float y
property float z
property uchar red
property uchar green
property uchar blue
element edge 12
property int vertex1
property int vertex2
end_header
482.382 -164.145 -1464.84 0 0 255
486.41 -445.948 -1470.1 0 0 255
1429.58 -432.702 -1457.47 0 0 255
1425.55 -150.899 -1452.21 0 0 255
482.014 -164.673 -1436.85 0 0 255
486.042 -446.475 -1442.11 0 0 255
1429.21 -433.23 -1429.48 0 0 255
1425.18 -151.427 -1424.22 0 0 255
0 1
1 2
2 3
3 0
4 5
5 6
6 7
7 4
0 4
1 5
2 6
3 7
