ply
format ascii 1.0
element vertex 8
property float x
property float y
property float z
property uchar red
property uchar green
property uchar blue
element edge 12
property int vertex1
property int vertex2
end_header
11466.4 -231.427 -1462.47 0 0 255
11415.2 42.2478 -1458.31 0 0 255
10506.5 -127.71 -1460.91 0 0 255
10557.7 -401.385 -1465.07 0 0 255
11466.4 -231.853 -1434.47 0 0 255
11415.2 41.8221 -1430.31 0 0 255
10506.5 -128.136 -1432.92 0 0 255
10557.7 -401.811 -1437.08 0 0 255
0 1
1 2
2 3
3 0
4 5
5 6
6 7
7 4
0 4
1 5
2 6
3 7
