ply
format ascii 1.0
element vertex 8
property float x
property float y
property float z
property uchar red
property uchar green
property uchar blue
element edge 12
property int vertex1
property int vertex2
end_header
5192.94 -325.225 -1464.43 0 0 255
5148.04 -71.516 -1463.33 0 0 255
4251.15 -230.282 -1458.53 0 0 255
4296.06 -483.991 -1459.62 0 0 255
5193.11 -325.316 -1436.43 0 0 255
5148.2 -71.6074 -1435.33 0 0 255
4251.32 -230.374 -1430.53 0 0 255
4296.22 -484.083 -1431.62 0 0 255
0 1
1 2
2 3
3 0
4 5
5 6
6 7
7 4
0 4
1 5
2 6
3 7
