ply
format ascii 1.0
element vertex 8
property float x
property float y
property float z
property uchar red
property uchar green
property uchar blue
element edge 12
property int vertex1
property int vertex2
end_header
5607.66 418.012 -1464.61 0 0 255
5584.82 234.053 -1467.15 0 0 255
6503.22 119.936 -1458.3 0 0 255
6526.06 303.895 -1455.76 0 0 255
5607.34 417.664 -1436.61 0 0 255
5584.51 233.704 -1439.15 0 0 255
6502.91 119.587 -1430.31 0 0 255
6525.75 303.547 -1427.76 0 0 255
0 1
1 2
2 3
3 0
4 5
5 6
6 7
7 4
0 4
1 5
2 6
3 7
